<svg width="197" height="86" viewBox="0 0 197 86" fill="none" xmlns="http://www.w3.org/2000/svg">
<path d="M91.7027 62.576C88.0334 62.576 84.8334 61.9147 82.1027 60.592C79.3721 59.2693 77.2601 57.4347 75.7667 55.088C74.2734 52.6987 73.5267 49.9253 73.5267 46.768C73.5267 42.928 74.4441 39.5147 76.2787 36.528C78.1134 33.4987 80.6307 31.1093 83.8307 29.36C87.0307 27.6107 90.7001 26.736 94.8387 26.736C98.5507 26.736 101.751 27.3973 104.439 28.72C107.169 30 109.281 31.8133 110.775 34.16C112.268 36.5067 113.015 39.28 113.015 42.48C113.015 46.32 112.097 49.7547 110.263 52.784C108.428 55.8133 105.911 58.2027 102.711 59.952C99.5107 61.7013 95.8414 62.576 91.7027 62.576ZM92.4067 52.912C94.0281 52.912 95.4574 52.5067 96.6947 51.696C97.9321 50.8427 98.8921 49.6907 99.5747 48.24C100.3 46.7893 100.663 45.0827 100.663 43.12C100.663 41.2 100.087 39.6 98.9347 38.32C97.8254 37.04 96.2254 36.4 94.1347 36.4C92.5134 36.4 91.0841 36.8053 89.8467 37.616C88.6094 38.4267 87.6281 39.5787 86.9027 41.072C86.2201 42.5227 85.8787 44.2293 85.8787 46.192C85.8787 48.24 86.4547 49.8827 87.6067 51.12C88.7587 52.3147 90.3587 52.912 92.4067 52.912ZM123.728 62L116.368 27.312H128.4L134.16 56.368H127.888L145.488 27.312H157.52L136.336 62H123.728ZM168.622 62.576C166.147 62.576 163.779 61.9573 161.518 60.72C159.256 59.4827 157.422 57.6907 156.014 55.344C154.648 52.9973 153.966 50.1387 153.966 46.768C153.966 43.8667 154.456 41.2 155.438 38.768C156.419 36.336 157.763 34.224 159.47 32.432C161.219 30.64 163.224 29.2533 165.486 28.272C167.79 27.248 170.222 26.736 172.782 26.736C175.598 26.736 178.008 27.2907 180.014 28.4C182.062 29.4667 183.555 31.216 184.494 33.648C185.432 36.0373 185.646 39.28 185.134 43.376C184.75 47.2587 183.832 50.6507 182.382 53.552C180.931 56.4533 179.054 58.6933 176.75 60.272C174.446 61.808 171.736 62.576 168.622 62.576ZM172.846 52.784C174.467 52.784 175.896 52.3787 177.134 51.568C178.371 50.7573 179.331 49.6267 180.014 48.176C180.739 46.7253 181.102 45.04 181.102 43.12C181.102 41.1147 180.526 39.5147 179.374 38.32C178.222 37.0827 176.6 36.464 174.51 36.464C172.931 36.464 171.502 36.8907 170.222 37.744C168.984 38.5547 168.003 39.6853 167.278 41.136C166.595 42.5867 166.254 44.272 166.254 46.192C166.254 48.1973 166.83 49.7973 167.982 50.992C169.134 52.1867 170.755 52.784 172.846 52.784ZM177.966 62L179.182 56.176L181.486 44.72L183.022 33.264L184.238 27.312H196.398L189.486 62H177.966Z" fill="#1A1A1A"/>
<path d="M47.6844 78.3623C47.7842 78.2296 48.2654 77.7789 48.451 77.5635C48.3776 77.9398 47.3266 78.8431 47.6844 78.3623ZM52.2905 48.8148C52.2426 49.0065 52.1931 49.1994 52.1421 49.3932C52.4264 48.9021 52.7169 48.2423 52.9775 47.7826C53.0199 47.7084 53.0399 47.957 53.1305 47.777C53.2206 47.5972 53.0492 47.5657 53.1536 47.2964C53.2749 46.9994 53.9739 45.6886 54.1532 45.2166C54.8513 43.4483 55.3506 41.6424 55.8247 39.9211C55.4938 41.7269 56.0759 39.9707 56.1274 39.4302C56.1277 39.3139 55.8855 39.2839 56.221 37.5427C56.3853 36.4741 56.7459 37.4504 56.6271 35.6985C56.267 37.0485 56.3991 35.6684 56.3378 34.7596C56.3452 34.5823 56.2472 33.3901 56.1158 33.0842C56.0776 32.9641 55.8846 32.8556 55.8437 32.7617C55.8153 32.6955 55.8611 32.6011 55.8237 32.5316C55.7839 32.4576 55.756 32.4131 55.742 32.3845C55.3574 31.9893 55.0282 31.7545 54.4621 31.5453C54.9963 31.3381 54.1423 31.2796 54.0792 31.2703C53.8908 31.1188 54.8142 31.3275 54.4691 31.1704C53.9717 31.0388 53.3376 30.9821 52.6187 31.0296C53.2069 31.0442 51.8686 31.3686 51.5663 31.327C51.6595 31.4718 50.7713 31.5265 49.6811 31.7735C48.6055 32.0015 47.3584 32.4281 47.0711 32.6198C46.9533 32.7092 47.8606 32.4035 45.8692 33.3251C45.6528 33.4303 45.6884 33.3104 45.5806 33.3774C45.5164 33.4177 45.2511 33.8823 44.7492 33.9912C44.5633 34.0459 45.4605 33.2562 43.3127 34.67C44.3252 34.3196 40.4259 36.7894 39.7384 37.3468C39.8969 37.267 40.0557 37.1885 40.2146 37.1112C39.4823 37.5607 39.4272 37.7354 39.2754 37.8523C38.6628 38.3291 37.8007 38.9626 37.2735 39.4662C36.6596 40.0552 36.7819 40.1634 36.032 40.8174C36.2236 40.6767 36.4196 40.5344 36.6111 40.3996C36.1173 40.8665 35.6315 41.3479 35.1672 41.8293C36.0806 40.5575 34.9257 42.0629 34.8452 42.168C34.7156 42.3212 34.8429 42.051 34.6254 42.3063C34.6042 42.3331 34.6978 42.3496 34.3648 42.7374C33.6823 43.5444 33.7074 43.3698 33.4221 43.7122C33.3983 43.7438 33.5394 43.6795 33.0767 44.2832C31.634 46.2496 33.0363 44.2271 33.0888 44.162C33.1648 44.057 32.3548 44.5314 33.7994 42.9725C33.3077 43.4956 33.1613 43.4687 33.1068 43.5282C33.0542 43.5804 32.3211 44.5427 32.2856 44.6065C31.9645 45.1115 32.3546 44.7427 32.2983 44.8455C32.2451 44.9248 31.309 46.0368 31.3696 46.4584C30.7929 46.8967 31.3714 45.9992 32.0242 45.047C32.0764 44.8792 31.3007 45.8847 31.2669 45.9484C30.3859 47.3017 31.0587 46.6501 30.9818 47.0124C30.9409 47.2058 30.4933 47.6891 30.9574 47.2676C30.2635 48.4919 30.6036 47.7054 30.5405 47.778C30.4518 47.8852 30.274 48.3254 30.2391 48.3813C30.189 48.4566 30.2744 48.1529 30.0935 48.4576C30.0635 48.5099 29.914 49.0483 30.283 48.4298C29.8388 49.2817 29.9917 49.2071 29.6878 49.4411C29.7809 50.1276 29.332 49.7854 29.232 50.0021C28.9902 50.5655 29.3138 50.4652 29.3145 50.4983C29.3232 50.6156 29.2024 51.0194 29.1426 51.3909C29.0803 51.745 29.0817 51.9976 29.1034 52.0501C28.8989 52.083 29.1149 51.3663 29.1506 51.1074C29.1671 50.7492 29.0816 50.9855 28.9962 51.2593C28.9129 51.5206 28.849 51.7483 28.7463 51.5326C28.7931 51.7164 28.8569 51.8949 28.9268 51.9999C28.8566 52.1151 28.8029 52.1019 28.7766 52.1303C28.75 52.1484 28.7581 52.2628 28.8185 52.3804C28.8811 52.3679 28.8669 52.3369 28.8481 52.2844C28.8288 52.2334 28.8057 52.146 28.8614 52.1757C28.9286 52.231 28.9637 52.3446 28.9887 52.32C29.0231 52.31 28.9677 52.2285 29.0244 52.2196C29.0939 52.2353 29.0751 52.2671 29.0787 52.3285C29.1051 52.4051 29.0629 52.4498 28.9853 52.3552C28.9938 52.4001 28.883 52.6634 29.1016 52.7226C29.2069 52.7437 28.9242 52.22 29.4217 52.5272C29.5626 52.5953 29.7266 52.6718 29.8916 52.7391C29.8941 52.8229 29.6315 52.7178 29.3977 52.5814C29.3222 52.5337 29.2842 52.4991 29.2791 52.4994C29.2549 52.4998 29.2162 52.7849 29.2341 52.8083C29.2382 52.8151 29.254 52.8266 29.2821 52.8424C29.4732 52.9492 29.9476 53.121 30.2595 53.1497C30.5831 53.1896 30.8022 53.1404 30.9444 53.1548C30.8725 53.097 31.0646 53.054 31.3515 52.8749C31.6385 52.7066 32.0135 52.3376 32.0594 52.2474C32.0855 52.2009 31.8856 52.2919 31.9165 52.2441C32.1106 51.9923 32.8757 51.1441 33.1281 50.6039C33.4187 50.0172 33.3046 50.0627 33.3224 50.0299C33.4417 49.765 33.3957 49.9966 33.4657 49.8311C33.6003 49.5926 34.2007 47.7521 34.1954 47.6336C34.1997 47.6048 34.0389 47.9014 34.1329 47.4776C34.1427 47.4002 34.2536 47.482 34.4674 46.194C34.6973 44.6364 34.1482 47.2493 34.1679 46.5882C34.5058 45.6223 34.3454 45.6338 34.4023 45.366C34.4209 45.2745 34.6449 44.5821 34.7031 43.8061C34.6734 44.3633 34.626 44.9184 34.56 45.4688C34.6699 44.9322 34.7585 43.873 34.8083 43.4162C34.8339 43.1947 34.919 43.3817 34.9424 42.8993C34.9423 42.7962 34.7498 42.389 34.7657 43.6485C34.676 43.745 34.7758 43.1493 34.7645 42.872C34.7626 42.8295 34.6363 42.6639 34.7319 42.3092C34.7414 42.2249 35.1707 43.1493 34.8598 40.7508C34.8485 40.674 34.8075 40.9459 34.7952 40.8709C34.7889 40.8197 34.7842 40.2062 34.7717 40.1394C34.7609 40.0711 34.7232 40.3704 34.7086 40.2891C34.6349 39.8747 34.8039 39.2999 34.8431 40.1717C34.8532 39.8781 34.8581 39.5845 34.8576 39.2914C34.7292 39.6208 34.776 38.8393 34.7179 38.4417C34.3049 35.9092 34.4635 37.6302 34.3465 37.2053C34.1345 36.5387 34.5028 37.0005 34.1964 36.0037C34.1537 35.9202 34.3965 37.1331 33.8045 34.79C33.9144 35.1259 34.0164 35.4729 34.1069 35.8161C34.2047 35.5743 33.746 34.574 33.7137 34.507C33.3828 33.6415 33.6664 34.182 33.0656 32.972C33.0094 32.8649 32.9271 32.6117 32.7955 32.3978C32.2578 31.5069 33.3806 33.6596 33.3117 33.7804C33.3451 33.7835 32.184 31.4444 32.0998 31.4275C31.9526 31.0783 32.7229 32.3884 32.6296 32.1097C32.6127 32.0554 32.1468 31.2123 31.5126 30.4988C30.8835 29.7612 30.0839 29.2258 29.8095 29.0627C29.1826 28.6721 28.8972 28.4282 28.8381 28.6046C28.6897 28.3517 28.4707 28.4255 28.3805 28.4004C28.0932 28.3211 27.8645 28.2783 27.6724 28.2485C27.0726 28.1693 26.866 28.142 26.0309 28.1734C25.7867 28.186 25.5703 28.1511 25.4835 28.169C25.4335 28.1801 25.5356 28.2263 25.2907 28.2721C24.9508 28.2715 22.8873 28.79 22.7298 28.8799C22.5646 28.9039 23.5836 28.5466 23.3849 28.5686C22.6423 28.8117 21.9543 29.141 21.2402 29.5467C20.944 29.7177 21.0777 29.5997 20.951 29.6751C20.8948 29.6943 19.917 30.3919 19.9727 30.379C20.0265 30.3552 20.8086 29.7961 21.5136 29.4258C22.2119 29.0497 22.8216 28.8259 22.4077 29.0343C22.2477 29.1128 21.64 29.33 21.7785 29.3703C18.9303 30.8285 16.4676 33.4598 14.4445 36.3667C15.5493 34.6423 17.0469 32.904 18.5683 31.5408C18.7775 31.3425 19.5016 30.7625 19.3868 30.7984C18.024 31.8482 16.5315 33.4943 15.4581 34.8627C15.4234 34.9064 15.5167 34.7216 15.3848 34.8836C15.1306 35.1868 14.4453 36.2528 14.3124 36.4302C14.2877 36.4575 14.6625 35.8303 14.5096 35.9954C14.116 36.4226 14.1875 36.6364 13.9169 37.0435C13.6894 37.35 12.3077 39.5038 12.0621 40.109C11.7786 40.7271 13.0102 38.4694 12.9669 38.6615C12.1236 40.1749 11.2729 41.7298 10.5852 43.2394C10.5731 43.2659 10.7086 43.0483 10.5583 43.3858C10.2984 43.9742 10.1902 44.1137 10.0582 44.3984C9.91342 44.7043 9.45998 45.8142 9.388 45.959C9.3784 45.9773 9.42917 45.7368 9.44198 45.7022C9.62214 45.2111 9.74784 45.061 9.76669 45.0173C9.83786 44.8536 9.88626 44.6843 9.95171 44.5352C10.0598 44.2899 10.1371 44.1626 10.2826 43.84C10.3834 43.6178 10.2507 43.8175 10.3485 43.6037C10.3829 43.5233 10.8565 42.7183 10.8093 42.6026C10.6954 42.5116 7.82629 49.5979 7.72044 50.3787C7.92997 49.7538 8.14748 49.1366 8.37536 48.5196C7.90607 49.7678 7.49699 51.3146 7.37669 51.4029C6.6127 53.9266 5.98492 56.5082 5.5445 59.0962C5.54189 59.1102 5.54177 59.1147 5.54277 59.0905C5.5362 59.0548 5.57135 59.0471 5.49411 58.7747C5.4833 58.7465 5.43632 58.5931 5.28996 58.4389C5.15331 58.2755 4.80414 58.1153 4.52971 58.1554C3.98564 58.2573 3.95837 58.4567 3.88776 58.5106C3.79241 58.6443 3.80068 58.6603 3.7982 58.6594C3.79541 58.6669 3.79608 58.667 3.79819 58.663C3.80765 58.6455 3.83839 58.5591 3.8536 58.5157C3.8727 58.4608 3.89464 58.3936 3.91872 58.3158C3.93774 58.2559 3.95587 58.1975 3.97596 58.1304C4.06433 57.83 4.12921 57.597 4.20655 57.3008C4.34859 56.7604 4.48751 56.1696 4.60752 55.6249C4.85521 54.4961 5.0686 53.3426 5.24718 52.1984C5.38154 51.3294 5.35917 51.805 5.53352 50.3606C5.47664 50.7309 5.41533 51.1051 5.34968 51.481C5.49051 50.7404 5.83459 47.4409 5.83584 46.8951C5.83813 46.8251 5.82076 46.734 5.8575 45.8995C5.88632 45.1635 5.90624 45.0488 5.91856 44.6525C5.92806 44.3176 5.92518 43.9511 5.92632 43.8525C5.92728 43.7773 5.93881 43.7475 5.94013 43.5662C5.9416 42.9924 5.91638 43.4593 5.94279 42.8865C5.94677 43.0258 5.95015 43.1648 5.95293 43.3036C5.95224 42.608 5.93138 41.6707 5.97079 42.6841C5.97627 42.8581 5.96248 42.7091 5.96535 42.8389C5.9347 47.9562 6.04651 43.8697 5.94877 42.0794C5.96736 41.6125 5.74819 39.0471 5.72155 38.9622C5.71095 38.8431 5.77301 39.2809 5.71253 38.7041C5.73916 38.5771 5.12631 35.1796 5.36154 36.3999C5.42291 36.6493 5.68219 38.2851 5.72126 38.6823C5.64977 37.7439 5.20201 35.5857 5.13336 35.3479C4.91677 34.3726 5.56755 37.2171 5.07663 35.0204C4.6519 33.3427 5.04427 34.9196 4.87211 34.2769C4.79284 33.9105 4.20033 32.0427 4.19086 32.1022C3.95903 31.471 4.09978 31.8384 4.07195 31.7601C4.05114 31.6816 3.55228 30.4552 3.36243 30.0695C3.34065 30.0221 3.41448 30.1686 3.39215 30.1196C3.35728 30.0203 2.77876 28.8806 2.74565 28.8399C2.73018 28.8112 2.87173 29.0811 2.81158 28.9713C2.75008 28.8383 2.12894 27.777 2.08399 27.7243C2.04277 27.6379 2.80975 28.9479 2.67568 28.7333C2.34567 28.1167 1.72317 27.1573 1.44787 26.7862C1.51668 26.877 1.89859 27.4369 2.02257 27.6386C1.97047 27.5388 1.13486 26.3452 1.42298 26.7517C1.23626 26.4952 1.36293 26.671 1.25657 26.5272C1.22994 26.4892 0.955775 26.1279 0.901582 26.0618C0.895137 26.0514 1.1783 26.4224 1.12094 26.3487C1.02826 26.205 0.157566 25.1543 0.0701751 25.0771C-0.139568 24.84 0.603687 25.6789 0.655529 25.7549C0.669034 25.762 0.0471546 25.0422 0.0320236 25.0349C0.000191245 24.99 0.694056 25.7894 0.612398 25.6993C0.445709 25.4986 0.2741 25.3009 0.0974567 25.1064C0.799445 25.8393 1.87593 27.3571 2.11791 27.7728C1.33616 26.5018 0.297734 25.3245 0.298122 25.3288C0.301301 25.328 0.720561 25.8176 0.702811 25.7996C0.647833 25.723 0.0540967 25.0507 0.027175 25.0292C0.00854306 25.0091 1.52433e-06 25 0 25C0.00883868 24.9944 0.847833 25.9574 0.878597 26.0125C0.947437 26.0946 0.589382 25.656 0.588234 25.6578C0.605367 25.6699 1.17443 26.3741 0.98335 26.1353C0.796222 25.8905 0.272972 25.291 0.251286 25.2721C0.157947 25.1538 1.06055 26.2085 1.07711 26.2495C1.09258 26.2633 0.62251 25.6871 0.605202 25.6725C0.594816 25.6577 0.957994 26.0898 1.09618 26.2675C1.20079 26.3979 0.898071 26.0168 0.951361 26.0841C0.998895 26.1246 1.78743 27.1775 1.81472 27.236C1.86988 27.3146 1.69556 27.0617 1.72127 27.0983C1.7593 27.1489 1.99804 27.4992 1.96718 27.4537C1.959 27.4089 0.981468 26.0859 0.974251 26.1035C0.995468 26.1112 2.05292 27.4993 1.06526 26.2101C1.05838 26.1999 0.808206 25.8969 0.800315 25.889C0.64246 25.704 1.46492 26.6626 0.457018 25.4918C2.29977 27.7023 0.697259 25.7554 0.969842 26.0832C1.08263 26.2043 1.7603 27.0931 1.75733 27.1009C1.69634 27.0114 1.48318 26.7268 1.40937 26.6308C1.37362 26.5748 1.96516 27.3788 1.83308 27.1971C1.77278 27.098 1.12678 26.256 1.09314 26.2258C0.826553 25.9007 1.15495 26.2982 1.0966 26.2266C1.05922 26.1757 0.646245 25.6916 0.632849 25.6803C0.618237 25.6576 1.18098 26.3169 1.29065 26.4632C1.37748 26.5704 1.05362 26.1664 1.11377 26.2415C1.48842 26.6859 2.20478 27.6857 1.50372 26.7294C1.46108 26.6708 1.18146 26.3188 1.17214 26.3092C0.998502 26.0921 1.51854 26.7367 1.60471 26.8567C1.76191 27.0563 1.03518 26.1156 1.63924 26.8981C1.19002 26.3078 0.9286 25.9874 0.339271 25.3516C1.93009 27.1481 2.41337 27.8526 0.733568 25.7806C1.28793 26.4181 1.22267 26.3554 1.38306 26.5504C1.48966 26.6679 2.21118 27.6634 1.8863 27.2027C1.84846 27.1429 1.39127 26.5512 1.53564 26.7356C2.60818 28.1738 1.56655 26.7602 1.55901 26.7634C1.66326 26.7137 3.99472 30.4519 4.19714 31.2031C4.55757 32.0034 4.83873 32.7353 4.90424 32.9142C5.11679 33.5063 4.93433 33.0169 4.97931 33.1501C5.0375 33.2807 5.5862 34.9849 5.59758 35.0751C5.68654 35.4103 5.58347 35.0733 5.59256 35.1082C5.72295 35.5177 6.26009 37.8633 6.3475 38.5315C6.35711 38.5083 6.10771 37.1807 6.27656 38.0078C6.46695 38.9728 6.42881 39.0366 6.43313 39.0615C7.11699 43.5156 7.07855 48.0642 6.59882 52.5433C6.65894 52.4902 6.87588 49.5476 6.86732 49.4829C6.95488 49.0937 6.51953 54.0557 6.36219 54.6597C6.43831 54.1919 6.50492 53.7466 6.5695 53.2767C6.52306 54.0836 6.21782 55.8121 6.019 56.9453C5.96026 57.2973 6.10492 56.6258 6.10404 56.6324C6.05309 57.0329 5.89978 57.7205 5.97596 57.2028C5.80091 58.1994 5.80387 58.0609 5.60732 58.8462C5.59463 58.8846 5.71973 58.5335 5.53469 59.208C5.52108 59.2507 5.50429 59.3045 5.47478 59.3787C5.46062 59.403 5.48652 59.3877 5.36811 59.5794C5.33113 59.6284 5.29539 59.6956 5.14284 59.8101C5.06443 59.8647 4.94406 59.9394 4.74495 59.9696C4.5495 60.0037 4.2771 59.9435 4.10916 59.8208C3.7717 59.5675 3.76747 59.3375 3.75349 59.3325C3.73753 59.279 3.72996 59.2386 3.72465 59.2049C3.69827 58.966 3.72039 58.9378 3.72804 58.8399C3.78448 58.303 3.92447 57.271 3.93341 57.1128C3.93635 57.0262 3.74329 57.7892 3.80363 57.9008C3.70877 58.5246 3.68669 58.7522 3.68332 58.8336C3.66867 59.0134 3.68976 58.9091 3.6988 58.8934C3.70383 58.8878 3.70427 58.8935 3.70101 58.9917C3.70067 59.0188 3.6992 59.0503 3.70344 59.1169C3.70623 59.1515 3.70891 59.1939 3.72598 59.2713C3.73044 59.2909 3.73605 59.3129 3.74386 59.3385C3.75413 59.3673 3.75159 59.3773 3.80159 59.4833C3.84744 59.572 3.92349 59.7036 4.10205 59.829C4.27539 59.9573 4.56954 60.0193 4.7752 59.9756C5.19311 59.8766 5.26178 59.7116 5.33231 59.6453C5.39307 59.5682 5.41592 59.5236 5.43682 59.4852C5.48307 59.3935 5.47321 59.4077 5.48268 59.3867C5.49497 59.3564 5.50652 59.3255 5.5189 59.2904C5.54672 59.1673 5.59007 59.3771 5.92769 57.7228C5.92922 57.8256 5.87862 58.1164 5.8077 58.4373C5.76312 58.6313 5.73656 58.751 5.67238 58.9824C5.64309 59.0855 5.62884 59.1428 5.57742 59.2925C5.56646 59.3237 5.55533 59.3541 5.54238 59.3864C5.53588 59.4026 5.5289 59.4194 5.52082 59.4376C5.50814 59.4653 5.48839 59.5094 5.44964 59.5729C5.39234 59.6373 5.40334 59.7383 5.03776 59.9473C4.86274 60.0519 4.40283 60.1018 4.10747 59.8969C3.81752 59.706 3.75048 59.503 3.71003 59.4059C3.67545 59.3091 3.66621 59.2482 3.65902 59.1999C3.64681 59.1056 3.6489 59.0584 3.64952 59.0163C3.65222 58.9359 3.65867 58.8863 3.66585 58.8311C3.70974 58.4815 3.75224 58.1835 3.76361 58.071C3.7973 57.7489 3.71988 58.2142 3.64519 58.8282C3.63797 58.8845 3.63144 58.9349 3.62889 59.0184C3.62844 59.0623 3.62617 59.1113 3.64016 59.2123C3.65227 59.2734 3.6462 59.2988 3.71091 59.4634C3.7661 59.5838 3.88443 59.8352 4.24813 59.9913C4.62091 60.1479 4.99723 60.0113 5.13629 59.9165C5.42928 59.712 5.42798 59.6286 5.47752 59.5657C5.51135 59.5085 5.53575 59.4535 5.54035 59.4431C5.54844 59.4246 5.55543 59.4076 5.56194 59.3911C5.57491 59.3582 5.58605 59.3273 5.59703 59.2955C5.64903 59.1419 5.66143 59.0883 5.69099 58.9822C5.7554 58.7452 5.78 58.6283 5.82577 58.4273C5.89517 58.1079 5.95578 57.7795 5.9636 57.6687C5.96875 57.9051 6.01258 57.4821 6.12715 56.8702C6.24815 56.2087 6.21598 56.4756 6.27378 56.1339C6.43385 55.1444 6.33469 55.552 6.48434 54.7416C6.27721 55.5309 6.67245 53.3228 6.74672 52.7074C6.64338 53.733 6.50879 54.7956 6.3485 55.83C6.36316 55.7712 6.37781 55.7118 6.39244 55.6517C6.3466 55.938 6.30657 56.183 6.25593 56.4704C6.25887 56.4239 6.26185 56.3769 6.26488 56.3294C6.05238 57.7512 5.91817 58.1026 5.89761 58.2102C5.85961 58.385 5.79464 58.6561 5.74599 58.8465C5.71006 58.9825 5.6845 59.0785 5.64661 59.2027C5.61952 59.2878 5.59747 59.3562 5.55937 59.4462C5.56279 59.4383 5.53037 59.5162 5.48385 59.5916C5.45639 59.6346 5.4253 59.6882 5.33763 59.7796C5.24722 59.8547 5.09397 60.0639 4.60741 60.0822C4.3727 60.0848 4.11244 59.9733 3.96649 59.8421C3.81519 59.7109 3.74829 59.5874 3.7059 59.4986C3.63625 59.3331 3.65098 59.3459 3.63469 59.2874C3.61624 59.2014 3.61331 59.1501 3.61081 59.1079C3.60601 58.9524 3.61732 58.9026 3.62577 58.8254C3.754 57.698 3.9307 56.4897 4.11368 55.4248C4.15532 55.204 4.07604 55.3364 4.41907 53.7234C4.53335 53.2057 4.4656 53.7006 4.58112 53.1148C4.64807 52.3648 4.71699 52.3931 4.76495 52.1754C4.90487 51.5478 4.97332 51.1682 4.98682 51.1091C5.16567 50.3354 5.45748 49.2175 5.68988 48.3809C5.69386 48.3651 5.54359 48.7913 5.70396 48.2508C5.7578 48.0592 6.37507 46.3913 6.84055 44.9063C6.70121 45.2865 6.56588 45.6672 6.434 46.0497C6.56869 45.5958 7.66459 42.4372 7.35468 43.1925C7.15613 43.6538 6.83865 44.8408 6.71741 44.9385C7.01544 43.8704 9.34997 38.1533 9.66854 37.7553C9.70084 37.6968 9.5478 38.0807 9.59216 37.9997C9.6213 37.9359 10.2603 36.6616 10.366 36.5028C10.425 36.4067 10.1478 36.974 10.1825 36.9347C10.2032 36.8947 11.0716 35.3403 11.0958 35.2325C10.8851 35.6208 10.2866 36.6942 10.5641 36.111C10.5986 36.0373 10.8326 35.6713 10.8781 35.5807C11.29 34.7331 9.93961 37.193 9.76814 37.5871C10.4951 35.9877 11.9059 33.6531 13.1159 31.9528C13.638 31.2939 12.4397 32.9964 13.013 32.2457C14.2341 30.6955 13.2825 31.7883 13.314 31.7361C13.5633 31.3098 14.787 30.1433 14.6764 30.0455C15.1717 29.519 15.0276 29.6969 15.7181 28.9413C15.6165 29.0297 15.5155 29.1192 15.415 29.2099C16.102 28.2756 18.1652 26.8801 18.0429 27.0317C17.6736 27.3641 16.6618 28.1508 16.5939 28.2282C16.4866 28.3463 16.2373 28.7374 14.9766 29.9193C14.5627 30.4996 16.9211 27.9845 15.8792 29.1655C16.5092 28.3073 20.1481 25.6968 20.8126 25.4758C20.883 25.4395 20.4905 25.4737 21.5525 25.0554C22.0603 24.8634 20.868 25.3969 21.107 25.3224C21.4605 25.1771 24.7118 23.7 28.0988 24.0572C30.9304 24.2189 33.3208 25.8657 33.9848 26.461C34.0886 26.5476 34.0224 26.5479 34.1231 26.6337C34.4484 26.8852 35.5243 27.8913 35.9293 28.485C35.073 27.2708 36.8758 29.5279 37.1576 30.1727C37.6777 31.1211 37.5551 31.1039 37.7428 31.5186C38.4739 33.1232 39.4173 35.6477 39.4743 36.9899C39.6613 36.8842 39.7985 39.2544 39.8585 40.3123C39.9332 41.1418 40.108 42.353 40.1315 41.2207C40.2108 42.6674 40.2297 44.1992 40.1315 45.5682C40.1148 45.7953 40.0818 45.4772 40.0536 45.8639C40.051 45.8989 40.1067 45.9543 40.079 46.2856C39.7823 49.0381 39.8093 47.6778 39.702 48.1808C39.6314 48.4606 39.578 48.6756 39.5434 48.8292C39.8669 47.2361 39.9879 45.4027 40.0097 44.9132C39.8941 45.3232 39.6823 48.4192 39.3857 49.3363C39.3774 49.3672 39.3301 49.2407 39.3225 49.2723C39.3223 49.273 39.3222 49.2737 39.322 49.2743C39.2748 49.602 38.6538 51.7714 38.8652 51.3596C38.9276 51.2487 39.2573 50.2433 39.4959 49.0655C39.4426 49.3894 39.5749 49.1699 39.5661 49.2271C39.4767 49.9158 38.9042 51.5962 38.6476 52.1855C38.5941 52.3196 38.6479 52.3304 38.6395 52.3526C38.4169 52.8796 38.3629 52.6051 38.2645 53.2298C37.6697 54.1242 39.0026 51.3824 38.7659 51.5295C38.6863 51.5952 38.1822 53.1828 37.2488 54.7361C36.3799 56.3096 34.7857 57.667 34.8151 57.7104C34.7815 57.7137 34.6772 57.768 34.4671 57.8821C34.0724 58.2211 31.7286 59.1353 31.2608 59.1133C31.1901 59.1286 31.2367 59.2827 31.1458 59.2951C31.0482 59.3123 30.1482 59.3752 29.2804 59.2389C28.351 59.1092 27.4924 58.8152 26.9826 58.6626C27.5087 58.8936 27.9923 59.0679 28.5866 59.2145C27.6607 59.0196 27.1121 58.7945 26.7145 58.6378C25.6563 58.1589 25.9721 58.3527 26.6823 58.7103C26.7417 58.7386 26.8041 58.7676 26.8688 58.7967C26.9223 58.8186 26.9722 58.8447 27.0234 58.865C27.8178 59.2307 28.9986 59.4755 29.0267 59.4815C29.044 59.512 27.7526 59.3371 26.6264 58.8367C25.1439 58.2596 23.9119 56.9357 24.5142 57.3931C24.5905 57.4579 25.2556 58.0104 25.758 58.2827C26.2723 58.5702 26.621 58.7165 25.9837 58.3354C25.8699 58.2641 25.4093 58.0147 24.9667 57.6803C24.5037 57.338 24.1188 56.9382 24.0865 56.894C23.865 56.5872 24.5442 57.3191 25.3479 57.7899C26.1025 58.2542 26.97 58.5278 26.7598 58.3821C25.8173 58.1002 24.7148 57.3275 23.9115 56.3578C23.5428 55.9116 23.4111 55.8243 23.3678 55.7664C22.8095 54.8495 23.1933 55.3285 23.0268 55.0165C22.8768 54.8738 22.1593 52.9818 22.5282 53.2957C22.2003 51.8026 22.2956 51.0167 22.2794 50.6711C22.2841 50.3213 22.2557 50.405 22.2159 50.7699C22.1471 51.4257 22.0431 53.5362 23.1323 55.4512C22.2731 54.3052 22.0253 51.7957 22.123 50.9243C22.1386 50.5831 22.0286 50.7775 22.0727 50.1962C21.9996 48.8758 23.838 44.3834 24.5031 43.4499C24.1844 44.1245 24.3722 43.9787 24.6357 43.4699C24.8977 42.9739 24.5569 43.3184 24.5964 43.2157C24.6131 43.1019 26.0152 40.891 26.2526 40.5487C25.2459 42.1981 25.5575 41.8836 26.4666 40.5224C26.3575 40.7372 26.2512 40.9516 26.1476 41.1656C26.6308 40.319 27.9261 38.808 28.2359 38.3473C28.2816 38.2755 28.0277 38.4611 28.0527 38.4217C28.3034 38.0188 29.406 36.8085 29.4373 36.7336C29.4607 36.6649 28.9551 37.1569 29.0937 36.9323C29.1247 36.8822 29.6392 36.4495 30.0502 35.9356C30.2031 35.7444 30.0436 35.7976 30.0806 35.748C30.3917 35.3354 30.2933 35.6549 30.9081 34.9461C31.3581 34.4333 31.6091 33.9578 32.3123 33.3148C30.0145 35.4378 31.8748 33.5773 32.7743 32.6288C32.9201 32.4776 32.6752 32.4792 33.6429 31.6736C31.9026 33.7292 34.2848 31.2533 34.8301 30.8076C34.8597 30.7831 34.9375 30.855 35.1978 30.631C35.2199 30.6119 35.1418 30.5834 35.3808 30.3705C37.6893 28.3775 36.2442 29.6918 36.7335 29.38C36.9361 29.2496 38.0584 28.2539 38.3841 28.0205C38.4585 27.9661 38.4676 28.0532 38.7545 27.843C39.265 27.4699 39.6975 27.0761 40.0438 26.8386C40.0856 26.812 40.1477 26.9105 40.7986 26.4477C40.9856 26.3161 41.1811 26.1431 40.8878 26.2845C39.9196 26.7441 38.3871 28.0573 37.3924 28.6931C36.4694 29.2617 39.1793 27.2021 39.3581 27.1163C39.4119 27.0784 38.8907 27.5127 39.4608 27.1333C39.946 26.8109 40.7244 26.0446 41.5159 25.6268C41.5755 25.5929 42.2711 25.3977 42.248 25.4249C42.2249 25.4428 41.3166 26.0274 41.4781 25.994C41.4966 25.9881 42.0845 25.638 42.1808 25.6297C42.2996 25.6157 42.7724 25.8872 42.9067 25.8271C43.2513 25.6711 42.986 25.694 43.2043 25.584C43.6674 25.3349 45.3523 24.6837 45.3578 24.5134C45.0766 24.6278 44.787 24.7514 44.5161 24.8714C46.0469 24.1382 45.3694 24.3863 45.5754 24.2559C45.8016 24.1226 45.7889 24.2825 46.3208 24.0811C46.4193 24.0131 48.7319 23.1933 48.6996 23.1686C47.407 23.6591 47.8526 23.3452 47.7874 23.3575C47.5563 23.4211 47.2989 23.6178 46.9969 23.7268C44.9203 24.5206 46.9392 23.553 46.4396 23.7057C46.2682 23.7574 45.9697 23.9733 45.8984 23.9989C45.6659 24.081 45.6197 23.9784 45.4712 24.0528C45.1256 24.2277 45.5996 24.1938 45.5744 24.2144C45.2967 24.4351 44.0272 24.9029 44.7165 24.3845C44.2306 24.5456 44.2787 24.7575 43.8917 24.8578C43.1257 25.0643 44.1835 24.5671 44.4577 24.4104C45.4915 23.8214 45.7806 23.7546 47.3915 23.1463C47.9614 22.9363 48.6408 22.6294 48.9329 22.5472C49.1156 22.474 50.8849 22.4721 50.8815 21.9091C51.6068 21.8396 52.7591 22.113 53.5303 22.0994C54.2186 22.0859 54.0107 21.8834 54.0754 21.875C54.1684 21.859 55.043 21.927 55.3468 21.9409C55.7018 21.9511 55.5377 21.8435 56.1044 21.9014C57.5286 22.0902 57.4421 22.3512 57.578 22.3916C59.1736 23.0846 58.5577 22.582 58.9358 22.692C59.1623 22.7449 61.2033 23.7314 62.5467 25.0148C63.4134 25.7963 64.0067 26.6124 64.2607 26.931C63.9541 26.5654 63.6225 26.2135 63.2558 25.873C63.7554 26.6222 64.3985 27.2194 64.2029 27.3707C64.6708 27.3103 65.2315 28.8963 65.393 29.3439C65.4676 29.5152 65.5254 29.4737 65.6104 29.686C65.9811 30.5351 66.352 32.3938 66.4372 32.826C66.6462 33.7204 66.6789 33.0532 66.5363 31.9543C66.4207 30.9196 65.9667 29.4581 65.8828 29.2692C66.3958 30.1223 67.2547 34.5393 67.0902 32.4834C67.0628 32.1491 66.7581 31.6121 66.7058 31.4371C66.3441 30.2441 66.7525 31.1505 66.7433 31.0535C66.7348 30.9029 66.3232 30.0831 66.2593 29.8683C66.2312 29.7926 66.5712 30.2202 66.0949 29.0111C66.5933 29.5618 67.3015 32.9989 67.3034 33.3346C67.3114 33.4671 67.5965 32.5632 67.5028 35.2361C67.53 35.205 67.5572 35.1737 67.5842 35.1424C67.6785 36.6362 67.6397 38.0244 67.5305 39.3706C67.4774 39.2132 67.4066 38.4393 67.3525 39.4006C67.3149 39.957 67.5046 39.5657 67.5041 39.6165C67.7013 40.2301 65.8457 48.4304 65.183 49.8259C65.0156 50.348 64.6221 51.783 64.5798 51.8902C64.3551 52.5488 63.3659 54.7012 63.1727 55.1524C63.0608 55.4317 63.2982 55.2334 63.1853 55.47C63.08 55.6892 63.0652 55.4019 63.0307 55.4654C62.7815 55.9924 60.8708 60.2165 60.2137 61.0561C60.5802 60.5163 61.872 57.43 61.739 57.454C61.7225 57.4608 61.2787 58.1227 61.2459 58.2931C61.0232 58.4778 60.8949 59.4878 60.5894 59.9057C60.5546 59.9518 60.4928 59.6559 60.0286 60.4269C59.869 60.6908 59.6021 61.4907 59.0341 62.1123C58.5647 63.2161 54.9041 68.2609 54.7857 68.7133C54.7885 68.7312 55.3621 68.0582 55.0892 68.5996C54.7237 69.3182 54.8097 68.4976 54.2442 69.214C54.1709 69.321 52.6567 71.3881 52.6185 71.4645C52.324 72.2263 53.7707 70.5137 53.7681 70.551C53.7786 70.6581 52.6681 72.1653 52.6087 72.2071C52.552 72.2515 53.2452 70.8704 52.2138 72.3666C52.3719 72.228 52.5294 72.089 52.686 71.9497C52.2139 72.6661 51.9944 72.5897 51.8549 72.7425C51.4188 73.2143 51.217 73.9836 50.2494 74.4895C49.9922 74.6232 50.1953 74.1996 50.1609 74.2147C49.8415 74.3636 49.8602 74.9441 49.3195 75.1169C49.2773 75.1288 49.9101 74.152 48.5802 75.6523C48.693 75.5685 48.8056 75.4846 48.9179 75.4004C48.7748 75.6649 47.4537 77.1709 47.2479 77.3598C46.6691 77.9095 47.0032 77.2595 46.4666 77.8577C47.02 77.6924 45.3627 79.4547 45.2854 79.1764C45.2594 79.644 43.6253 80.9178 42.9078 81.5673C42.4576 81.9848 41.6192 82.9279 41.4646 83.0425C41.2755 83.1849 41.1917 82.9742 40.8413 83.2198C40.7454 83.2869 39.8756 84.2596 38.884 84.7919C38.6917 84.8965 38.1164 84.8937 38.3676 84.568C38.7938 84.0172 39.9693 83.4004 39.8187 83.2437C39.6589 83.082 38.4164 84.3119 38.0347 84.5792C36.2675 85.8278 37.0872 84.8433 36.9992 84.8206C36.7782 84.7663 35.8501 85.4998 35.8046 85.512C35.6011 85.5771 36.1695 84.953 36.1128 84.8546C36.0352 84.7332 34.9922 85.2042 35.1646 85.009C35.4083 84.7374 36.36 84.2716 36.4035 84.2219C36.9857 83.5805 35.8678 84.0414 35.5138 84.104C35.4065 84.123 35.6624 83.8187 35.5897 83.8563C34.4804 84.4271 35.6678 84.3951 34.9934 84.8532C34.3905 85.2583 35.0031 84.5154 34.9728 84.5225C34.9374 84.5339 34.2391 85.0463 34.0831 85.0629C34.0123 85.0732 35.5415 83.3674 35.3492 83.2669C34.8039 83.7442 34.2678 84.2042 33.7166 84.6653C33.5248 84.4941 34.4554 84.0315 34.5231 83.9454C34.6617 83.7752 34.1128 84.0305 34.0858 83.9505C34.0674 83.9011 34.5136 83.3387 33.9691 83.6552C33.7817 83.763 33.5244 84.1791 32.7797 84.495C34.849 82.6861 33.2377 83.6972 33.1229 83.6708C33.0077 83.644 33.9278 82.7073 32.6814 83.6674C32.3389 83.3068 32.6188 83.5213 32.9278 83.1876C33.3027 82.7774 32.2011 83.399 33.8646 82.3095C33.6385 82.1981 32.368 83.1551 32.2847 83.1881C32.2159 83.2174 32.4375 82.917 32.3125 82.9601C30.8371 83.4687 31.791 83.0358 31.2736 83.0538C31.2281 83.0573 30.0091 83.7732 30.8669 83.1274C32.425 81.9448 33.2469 81.715 33.0992 80.9631C31.7826 81.5764 30.6183 82.9361 30.2602 83.1897C29.7189 83.5731 30.2052 83.067 30.1147 83.08C30.0844 83.0856 29.6186 83.416 29.6054 83.4106C28.9654 83.2019 31.7112 81.9619 32.396 81.3233C32.1485 81.4064 31.9004 81.4883 31.6518 81.5689C31.9239 81.3693 32.1941 81.1686 32.4624 80.9669C31.0741 81.7826 32.3837 80.9525 32.446 80.371C32.4589 80.2421 31.7142 80.9965 32.5187 80.0698C31.7682 80.5475 31.9485 80.306 31.3733 80.8708C31.2901 80.722 32.6234 79.5114 33.1289 79.0099C31.0103 80.3526 32.5378 80.0131 30.5864 80.9976C30.3833 81.403 31.2021 80.7742 31.1533 80.8508C30.9817 81.1297 30.2898 81.372 29.8324 82.2263C29.7592 82.3652 30.3746 82.2201 29.6482 82.7016C29.5677 82.755 28.9968 82.9038 28.9952 82.8874C28.972 82.7204 29.4595 82.4622 29.4421 82.3969C29.4263 82.3358 28.9386 82.7061 28.9271 82.6931C28.8052 82.5455 29.3104 82.3495 29.213 82.3427C29.0013 82.3305 26.9511 83.1968 29.3926 81.7163C27.5439 83.2086 29.2601 82.069 29.9812 81.468C30.165 81.3159 30.1495 81.1894 30.4032 80.9644C30.7293 80.6749 31.1721 80.4252 31.3408 80.278C31.5208 80.119 30.2632 80.7032 31.902 79.6121C30.9455 79.9921 29.6475 81.244 28.7233 81.6298C26.8621 82.4032 29.6117 80.4927 29.8738 80.2486C29.9447 80.1876 29.5994 80.2409 29.6451 80.1979C29.7256 80.1316 31.3111 79.0951 31.3851 78.8795C31.4604 78.6709 30.8271 79.2909 30.7018 79.2183C30.6175 79.1776 32.3725 77.7009 31.3363 78.3859C30.6265 78.8576 29.5529 80.038 29.1086 79.8741C30.1263 79.1425 31.1151 78.3976 32.0999 77.6208C31.4673 77.9157 30.8193 78.2096 30.1865 78.4802C31.293 77.6404 32.3616 77.043 33.2751 76.0709C30.4782 77.6443 33.8652 75.1652 33.8553 75.0793C33.8475 75.0467 32.6351 75.532 32.4319 75.5986C33.2344 74.8238 35.7364 72.6682 33.9456 73.555C34.2809 73.4158 34.7783 72.6755 34.7547 72.6699C34.5417 72.5964 33.1941 73.8567 33.3103 73.5278C33.446 73.1513 34.0065 73.0641 34.4095 72.7002C36.4357 70.8322 35.1749 70.5747 37.3016 68.8652C37.2366 68.8761 37.1716 68.8869 37.1065 68.8976C39.3315 66.9275 41.4449 64.827 43.4253 62.6084C43.9641 61.5486 45.7494 59.0565 46.6578 57.8454C46.8419 57.6141 47.8368 56.4726 47.9186 56.3931C48.0815 56.2484 47.438 57.2031 47.8158 56.8279C47.9065 56.7529 49.3633 54.6867 49.1231 54.7494C48.9553 54.9777 48.5281 55.7654 48.4172 55.8598C47.6903 56.6068 51.9667 50.1094 51.9282 49.6886C51.8028 49.8217 51.6806 49.9461 51.5565 50.0723C51.8014 49.6675 52.0545 49.2311 52.2905 48.8148ZM48.9264 76.2855C48.8218 76.6617 48.1436 77.2169 47.8251 77.6291C47.388 78.2016 47.0163 79.5569 46.9058 78.701C47.5948 77.9048 48.2736 77.094 48.9264 76.2855ZM58.3006 64.1981C57.8515 64.7551 57.8573 64.094 58.2806 63.6804C58.3271 63.635 58.9015 63.4427 58.3006 64.1981ZM54.0144 70.1925C54.0289 70.166 54.3959 69.6861 54.4122 69.6725C54.8479 69.3243 53.7389 70.7732 54.0144 70.1925ZM67.3931 36.6344C67.3963 37.5176 67.6858 36.8863 67.5669 36.3335C67.5597 36.2992 67.393 36.5769 67.3931 36.6344ZM67.3774 37.262C67.1179 37.9509 67.5213 39.3186 67.5406 38.2542C67.5449 38.1498 67.3933 37.2269 67.3774 37.262ZM56.8331 66.2334C56.7884 66.104 57.2305 65.5269 57.4178 65.2818C57.4963 65.3449 56.9931 65.9718 56.8331 66.2334ZM65.1091 49.648C65.0548 49.6022 64.1785 52.0223 64.1981 52.2241C64.3167 51.8319 65.1734 49.7108 65.1091 49.648ZM66.7659 43.0936C66.7429 43.1563 66.5715 44.0762 66.6408 44.0669C66.8283 43.6365 66.8829 42.805 66.7659 43.0936ZM65.5259 27.8353C65.5025 27.8077 65.5154 28.0565 65.4276 28.0394C65.3274 28.0208 65.2065 27.7527 64.622 26.6511C64.4522 26.3254 65.2598 27.3533 65.1946 27.2434C65.0786 26.9971 64.9707 26.8091 64.875 26.6638C65.582 27.6383 66.0245 28.6272 66.0512 28.7464C66.1567 29.2563 65.5664 27.854 65.5259 27.8353ZM57.4146 21.8768C57.1885 21.8645 55.9029 21.5716 55.614 21.5253C55.5638 21.5155 55.8106 21.3735 55.2214 21.3212C54.7507 21.2901 55.43 21.5102 54.5262 21.4195C53.639 21.3535 54.8357 21.2848 54.7679 21.2785C54.6407 21.2424 53.2806 21.2977 53.3217 21.2116C53.3513 21.1243 54.8279 21.1988 55.2278 21.2447C55.7204 21.2805 55.1401 21.0827 55.9615 21.2201C56.4778 21.3185 56.1495 21.484 56.2562 21.5124C56.3335 21.5039 58.1875 21.8474 57.412 21.8754C57.4129 21.8759 57.4137 21.8763 57.4146 21.8768ZM64.6858 26.4097C64.7433 26.4771 64.8063 26.5595 64.875 26.6638C64.813 26.5777 64.7495 26.4929 64.6858 26.4097ZM50.1729 74.6742C50.4738 74.4556 49.8535 75.3516 49.4961 75.5836C49.4259 75.5267 50.1271 74.7096 50.1729 74.6742ZM63.8602 25.6552C62.6395 24.3107 63.7259 25.1726 64.6858 26.4097C64.3584 26.0356 64.2365 26.1279 63.8602 25.6552ZM61.2459 58.2931C61.2832 58.262 61.3224 58.2508 61.3672 58.271C61.2662 58.3512 61.2359 58.3468 61.2459 58.2931ZM62.4265 56.0744C62.6579 55.2293 61.9231 56.8142 62.0164 56.8543C62.0558 56.8677 62.4188 56.1079 62.4265 56.0744ZM67.383 35.4674C67.3699 35.5598 66.9183 34.1302 67.2892 36.2159C67.3119 35.093 67.385 36.2768 67.4173 36.2618C67.5337 36.2 67.3529 34.3653 67.3242 33.8948C67.1155 33.5824 67.4286 35.1662 67.3829 35.465C67.3829 35.4658 67.3829 35.4666 67.383 35.4674ZM43.2536 24.2121C43.4186 24.0194 44.059 23.7269 44.5296 23.5157C44.3463 23.703 43.6885 23.9887 43.2536 24.2121ZM5.84645 47.7203C6.67586 44.8717 6.92638 44.5526 6.06748 47.1239C6.05041 47.1732 5.80654 47.8966 5.84645 47.7203ZM19.4105 25.8832C19.7118 25.7837 18.8437 26.3336 18.3005 26.7084C18.1754 26.7909 17.6862 27.0714 18.1872 26.6723C18.2234 26.752 19.0289 26.2119 19.4105 25.8832ZM63.0753 24.9989C62.9921 24.9492 62.8878 24.8717 62.7666 24.7766C62.2827 24.3936 61.4812 23.718 60.975 23.396C61.3491 23.5172 62.2842 24.2023 62.8094 24.7302C62.9117 24.8288 63.0013 24.9203 63.0753 24.9989ZM9.33207 38.5953C9.47199 38.3108 9.51981 38.095 9.49199 38.1421C9.36696 38.353 9.15157 38.9092 9.33207 38.5953ZM65.7756 29.0013C65.7538 29.0688 64.871 27.465 64.902 27.2378C65.1504 27.6165 65.8134 28.9296 65.7756 29.0013ZM44.0943 23.843C44.2943 23.7805 43.3537 24.3136 43.0512 24.4428C43.0416 24.3645 43.9611 23.8787 44.0943 23.843ZM11.756 34.0875C11.9107 33.8445 12.2998 33.2483 12.3288 33.1659C12.3557 33.0677 11.7929 33.9549 11.756 34.0875ZM5.32367 34.0151C5.31736 33.9802 5.64879 35.0001 5.76442 35.4631C5.99785 36.3374 5.35424 34.0447 5.32367 34.0151ZM8.15409 41.3331C7.77808 42.1369 8.18887 41.2419 8.13031 41.258C7.89771 41.8094 7.36698 43.193 7.77681 42.2599C7.85705 42.0779 8.04457 41.5905 8.15409 41.3331ZM8.48494 40.5844C8.50711 40.4902 8.71452 39.882 8.49883 40.3909C8.39964 40.6266 8.29088 41.0295 8.48494 40.5844ZM6.72516 40.5009C6.82983 41.2772 6.31794 37.7196 6.25895 37.6263C6.24928 37.5726 6.24313 37.5374 6.2399 37.5173C6.21176 37.3883 6.06696 36.725 6.05607 36.6474C6.10227 36.8451 6.21954 37.3889 6.23057 37.4523C6.23576 37.4796 6.23951 37.5 6.24196 37.5141C6.3211 37.7431 6.73035 40.3464 6.72516 40.5009ZM7.05842 46.4431C7.03008 45.5401 7.06573 45.387 7.06982 45.4629C7.10242 46.4393 7.05964 45.8025 7.05901 45.8312C7.05821 45.9011 7.076 46.5972 7.05842 46.4403C7.05842 46.4413 7.05842 46.4422 7.05842 46.4431ZM6.85218 41.7143C6.84971 41.6764 6.77238 40.9282 6.76786 40.8979C6.71489 40.2829 6.93349 42.4033 6.85218 41.7143ZM50.794 21.8821C50.0992 21.9732 50.7556 21.7231 51.227 21.7012C51.2661 21.7015 51.4072 21.8128 50.794 21.8821ZM8.64765 40.1792C8.68254 40.0552 10.1119 37.1296 9.98535 37.2828C9.8349 37.5171 8.27067 40.8767 8.64765 40.1792ZM26.6693 23.7303C26.004 23.7557 26.732 23.6367 27.0782 23.6724C27.2074 23.6842 26.8338 23.7246 26.6693 23.7303ZM66.3643 31.2681C66.6564 32.0276 66.2787 31.9341 66.228 31.2402C66.2256 31.2128 66.3525 31.2384 66.3643 31.2681ZM21.579 24.8136C23.6751 24.0035 23.1623 24.2828 20.5582 25.4289C20.6324 25.3777 20.707 25.3271 20.7821 25.277C17.9219 26.8596 20.5363 25.3151 21.2943 24.997C21.5738 24.8658 21.3206 24.9325 21.5769 24.8142C21.5776 24.814 21.5783 24.8138 21.579 24.8136ZM30.2152 24.1479C31.8666 24.8745 29.7985 23.9713 28.1183 23.8658C27.6417 23.8228 27.2135 23.8136 26.9426 23.821C27.3444 23.7905 27.7962 23.7942 28.1242 23.8079C28.6511 23.837 28.8681 23.8484 28.1309 23.7422C27.9831 23.7236 27.795 23.7029 27.5618 23.685C27.7716 23.6919 27.9618 23.7031 28.1335 23.7163C30.5364 24.0274 29.3696 23.9788 29.4943 23.9813C29.6334 24.0143 30.1224 24.1097 30.2152 24.1479ZM24.3792 23.9931C24.2558 24.0152 23.3252 24.2002 23.0045 24.3159C23.4345 24.0849 25.1969 23.7957 24.3792 23.9931ZM6.73585 52.6811C6.72354 52.6142 6.73276 52.4277 6.79776 51.8018C6.78899 51.9992 6.75752 52.4051 6.73585 52.6811ZM47.9458 76.2542C47.6249 76.5928 46.9461 77.2386 47.2495 77.1345C47.2819 77.1209 48.0073 76.3137 47.9458 76.2542ZM13.3458 31.8959C13.3858 31.8057 15.0071 29.8191 14.4116 30.4746C14.2055 30.6632 12.8204 32.5246 13.3458 31.8959ZM7.40833 43.3274C7.47842 43.1341 7.77246 42.3473 7.77268 42.3282C7.7662 42.2638 7.41337 43.2332 7.40833 43.3274ZM46.2201 77.8798C46.1702 77.9141 45.1899 78.9517 45.3469 78.8901C45.6522 78.774 46.4035 77.7649 46.2201 77.8798ZM48.4655 22.6719C48.3306 22.7149 48.1328 22.6576 48.0878 22.6703C47.9767 22.6729 45.681 23.5732 46.515 23.1072C46.622 22.9747 50.0918 21.9847 50.633 21.9877C50.8284 22.1007 49.2583 22.2689 48.8958 22.4013C48.8315 22.4223 48.8206 22.5574 48.4664 22.6709C48.4661 22.6712 48.4658 22.6716 48.4655 22.6719ZM6.98022 49.3313C6.98125 49.2407 7.04318 46.7953 7.04774 46.8307C7.04319 47.6661 7.0207 48.4932 6.98022 49.3313ZM6.90164 50.5674C6.85248 51.0867 6.938 49.8601 6.95834 49.5097C6.97144 49.5003 6.91053 50.4955 6.90164 50.5674ZM9.31825 39.0585C9.41527 38.8298 9.04975 39.5 9.11305 39.3411C9.15299 39.2378 9.4029 38.7462 9.46749 38.5769C9.48389 38.5295 9.19948 39.0208 9.13369 39.1709C9.0389 39.3836 9.16583 39.1944 9.06038 39.4256C8.71031 40.196 8.39543 40.8685 8.09847 41.6019C8.07165 41.668 8.3024 41.166 8.07364 41.7285C8.03872 41.8152 7.79389 42.3228 7.54314 43.0047C7.08598 44.5439 6.60073 45.6155 6.05555 47.5659C6.08221 47.4942 6.55494 46.0585 6.5879 45.9743C7.11097 44.367 8.18636 41.5231 8.93113 39.8995C9.11921 39.4811 9.00543 39.6735 9.08614 39.4932C9.15065 39.3511 9.11406 39.5392 9.31825 39.0585ZM48.0385 75.9998C47.7556 76.036 47.3125 76.6919 46.9606 77.0509C47.2026 77.0407 47.6831 76.3312 48.0385 75.9998ZM3.95998 56.8782C3.99255 56.6431 4.1209 55.9081 4.12152 55.8504C4.12069 55.7664 3.94379 56.8257 3.95998 56.8782ZM37.0413 28.8685C37.0234 28.8857 36.5422 29.2601 36.5223 29.2722C36.0334 29.533 37.4829 28.4066 37.0413 28.8685ZM26.9654 39.312C26.7084 39.6949 26.4713 40.1042 26.3053 40.1848C26.4898 39.9336 26.9427 39.2299 26.9654 39.312ZM29.3376 59.496C29.1853 59.4225 31.2499 59.5352 31.6478 59.3933C31.5211 59.5378 29.3892 59.6437 29.3376 59.496ZM6.64517 52.7643C6.73347 51.9551 6.67435 52.1366 6.73988 51.6329C6.74987 51.5486 6.8539 51.3005 6.74266 52.1578C6.72027 52.317 6.76883 51.6868 6.64517 52.7643ZM20.1499 25.648C19.9731 25.7928 19.3615 26.1432 18.9703 26.4088C19.035 26.32 19.8536 25.8085 20.1499 25.648ZM44.2972 79.6035C43.8853 79.7502 42.6701 81.0956 43.0775 80.8815C43.1394 80.8491 44.1056 79.7851 44.2972 79.6035ZM60.2515 23.4803C59.2535 23.0545 61.1841 24.1511 61.77 24.5362C61.5269 24.3266 60.3394 23.4994 60.2515 23.4803ZM23.3149 56.0114C23.3297 56.0829 24.1677 57.1029 24.2257 57.1232C24.5898 57.5183 24.0753 57.0994 23.6717 56.5967C23.2504 56.0784 22.9591 55.5083 23.3149 56.0114ZM30.0661 35.6616C29.9265 35.9221 28.6623 37.3313 28.3474 37.6254C28.505 37.2198 30.2251 35.3197 30.0661 35.6616ZM6.20815 56.0199C6.3032 55.447 6.38519 54.9339 6.46643 54.3982C6.46833 54.5206 6.23371 55.9639 6.20815 56.0199ZM26.8688 58.7967C26.9223 58.8186 26.9722 58.8447 27.0234 58.865C26.9706 58.8424 26.9191 58.8194 26.8688 58.7967ZM5.49381 49.7428C5.62412 49.2826 5.56341 49.3677 5.55438 49.396C5.44912 49.7413 5.34867 50.2635 5.49381 49.7428ZM47.4547 76.2321C47.2181 76.2439 46.7354 76.9515 46.3683 77.2768C46.5611 77.2684 47.2043 76.5315 47.4547 76.2321ZM32.4546 25.2203C33.0759 25.5959 30.3869 24.3299 29.7406 24.2549C29.7223 24.2298 30.4137 24.3621 31.0812 24.6037C31.7602 24.8395 32.4118 25.1896 32.4546 25.2203ZM62.8282 25.6801C62.84 25.7888 63.9948 27.017 63.8046 26.7135C63.7222 26.518 62.8487 25.5879 62.8282 25.6801ZM28.2882 23.9823C28.2376 23.9799 28.1752 23.9747 28.1079 23.9683C27.8179 23.9394 27.4384 23.8911 27.6178 23.8754C27.7695 23.8626 27.9706 23.8929 28.1122 23.9257C28.2405 23.9544 28.3216 23.9838 28.2882 23.9823ZM10.9675 35.9087C11.0187 35.8179 11.6849 34.6141 11.3659 35.0841C11.1447 35.411 11.1577 35.4933 11.1114 35.5737C11.0496 35.6638 9.94257 37.5636 10.9675 35.9087ZM39.9075 38.2104C39.8 37.6725 39.7026 37.0245 39.5733 36.4599C39.6671 36.6831 39.9247 37.9725 39.9075 38.2104ZM57.7759 22.6399C57.8578 22.6781 59.0652 23.1096 59.8765 23.5601C60.686 24.009 61.1702 24.2776 59.9548 23.4979C59.8358 23.3384 57.296 22.3145 57.7759 22.6399ZM6.64517 52.7643C6.63393 52.8645 6.62023 52.9794 6.60333 53.1107C6.6191 52.9802 6.63318 52.8651 6.64517 52.7643ZM4.06317 56.5687C4.04965 56.7536 4.20117 55.8357 4.24055 55.5681C4.23299 55.4811 4.0633 56.5396 4.06317 56.5687ZM39.5082 36.4286C39.4134 36.1084 39.2953 35.5301 39.1787 35.1281C39.2404 35.1889 39.5202 36.2791 39.5082 36.4286ZM33.0655 58.7605C33.9728 58.4421 34.855 57.766 34.8279 57.7118C34.8476 57.7079 34.8873 57.6897 34.949 57.6537C35.0252 57.6193 35.7016 57.0045 35.9672 56.7329C36.7564 55.8907 35.4498 57.6971 33.6521 58.5441C32.786 58.9773 31.9437 59.1343 31.8263 59.1331C31.6844 59.0998 32.3737 59.1091 33.9475 58.2178C33.6706 58.4153 33.3764 58.5975 33.0655 58.7605ZM31.9175 33.8991C32.2307 33.6948 32.8777 32.9022 32.6676 33.0634C32.5188 33.172 31.6014 34.0995 31.9175 33.8991ZM23.7458 45.5223C23.8056 45.406 24.2017 44.4355 24.181 44.3952C23.8785 44.8935 23.4703 45.9968 23.7458 45.5223ZM33.9875 32.0164C34.1633 31.871 34.2869 31.5689 34.2631 31.5823C34.0564 31.7003 33.6544 32.2201 33.9875 32.0164ZM6.36523 54.3836C6.31206 54.7169 6.17718 55.7234 6.15665 55.9543C6.14588 55.9944 6.12273 56.1023 6.08257 56.2963C6.08268 56.2956 6.0828 56.295 6.08292 56.2943C6.06677 56.371 5.99357 56.7928 5.86654 57.4142C5.80901 57.6977 5.73056 58.0617 5.6508 58.3983C5.60198 58.5996 5.57312 58.7231 5.51203 58.9432C5.4845 59.0403 5.46936 59.1003 5.4222 59.2385C5.41214 59.2675 5.40203 59.2954 5.39051 59.3245C5.38473 59.3391 5.37858 59.3541 5.37155 59.3702C5.35998 59.3955 5.34303 59.4332 5.31058 59.4865C5.26354 59.5408 5.26961 59.6229 4.97769 59.7945C4.83839 59.8792 4.47083 59.934 4.21554 59.771C3.96545 59.6171 3.90421 59.4465 3.86626 59.3569C3.83458 59.2701 3.82792 59.2224 3.82131 59.1806C3.8106 59.1005 3.81218 59.0598 3.8126 59.0228C3.81468 58.9523 3.82032 58.9063 3.82699 58.8538C4.03967 57.1739 4.20024 55.9753 3.79634 58.8495C3.7882 58.9198 3.77832 58.9662 3.78181 59.0968C3.78373 59.1321 3.78597 59.1748 3.80083 59.2462C3.81289 59.2922 3.80569 59.2926 3.85536 59.4142C3.88873 59.487 3.94073 59.5884 4.06318 59.6996C4.18092 59.8106 4.39784 59.9108 4.59837 59.9112C5.01457 59.9 5.14327 59.7195 5.21879 59.6569C5.29204 59.5798 5.31786 59.5347 5.34099 59.4981C5.38096 59.4322 5.40633 59.3704 5.40447 59.375C5.48262 59.161 5.41355 59.3677 5.60601 58.6502C5.61753 58.6045 5.63803 58.5903 5.67555 58.437C5.76754 58.111 6.11975 56.3469 6.15725 55.9979C6.16046 55.9954 6.16682 55.9736 6.17722 55.926C6.2782 55.4797 6.40751 54.1375 6.36523 54.3836ZM22.9869 47.5556C23.0703 47.3513 23.2984 46.6505 23.2715 46.5794C23.1157 46.8896 22.7788 48.0423 22.9869 47.5556ZM57.8285 22.9542C58.3429 23.1576 59.6783 23.6714 59.3134 23.4386C59.0968 23.2509 57.2379 22.6785 57.8285 22.9542ZM25.9002 41.4841C24.5832 43.515 25.6015 41.9776 25.4762 42.3364C25.6134 42.0511 25.7633 41.7543 25.9002 41.4841ZM6.94342 44.1671C6.95355 44.5169 6.91553 44.1071 6.90985 43.7194C6.90805 43.5977 6.93749 43.9714 6.94342 44.1671ZM3.02207 28.9039C3.17645 29.1604 2.40918 27.9143 2.71349 28.3967C2.72915 28.4179 3.0128 28.8844 3.02207 28.9039ZM6.49358 39.3913C6.53868 39.6268 6.56593 39.7792 6.64593 40.4511C6.51547 39.4591 6.62828 40.3778 6.49358 39.3913ZM34.8151 57.7104C34.8216 57.7097 34.8268 57.7088 34.8279 57.7118C34.8211 57.7132 34.8172 57.7125 34.8151 57.7104ZM35.6158 30.5318C35.8956 30.4084 36.5276 29.8792 36.282 29.9642C36.2579 29.9716 35.6651 30.4008 35.6158 30.5318ZM6.15665 55.9543C6.16613 55.9188 6.16525 55.9379 6.15725 55.9979C6.15422 56.0002 6.15439 55.9844 6.15665 55.9543ZM32.4324 33.5804C32.4062 33.5097 31.5153 34.3904 31.4897 34.4339C31.0782 35.0322 32.0661 33.9464 32.4324 33.5804ZM65.3593 31.0746C65.3916 31.1549 65.4387 30.5734 65.25 30.2807C65.1078 30.0571 65.2485 30.7792 65.3593 31.0746ZM6.08843 37.1372C6.01255 36.7706 5.89278 36.2586 5.8761 36.1628C5.93633 36.4061 6.09702 37.1432 6.08843 37.1372ZM3.30407 29.4031C3.52563 29.7843 3.98298 30.6814 4.23885 31.2726C4.24881 31.2806 3.52236 29.7555 3.30407 29.4031ZM6.50747 53.3755C6.50346 53.4139 6.37273 54.3459 6.4066 54.2184C6.45745 54.0482 6.55019 53.1079 6.50747 53.3755ZM64.5366 28.6423C64.1956 28.1221 64.6582 29.4868 64.9946 29.9886C65.2035 30.2655 64.624 28.7298 64.5366 28.6423ZM37.6932 29.0041C38.1339 28.6025 36.9157 29.4274 36.8175 29.6287C37.0321 29.4644 37.535 29.1462 37.6932 29.0041ZM24.6797 44.0461C25.7923 42.4707 24.9324 43.1828 24.8029 43.4916C24.7821 43.5383 24.6517 44.0862 24.6797 44.0461ZM40.4344 82.1166C40.2765 82.3305 41.128 81.8437 41.1336 81.66C41.1375 81.5468 40.5365 81.9809 40.4344 82.1166ZM39.5434 48.8292C39.5278 48.9088 39.5119 48.9877 39.4959 49.0655C39.5054 49.0065 39.5206 48.9296 39.5434 48.8292ZM42.3581 26.2966C41.0275 26.6398 41.2946 26.838 41.1956 26.8929C40.9775 27.0234 40.4484 27.2416 40.0687 27.5171C40.4911 27.1835 40.9088 26.8637 41.3557 26.5389C40.9455 26.7082 37.8646 28.6921 37.8603 28.8133C37.8215 28.9457 38.7268 28.2403 38.7598 28.23C38.8049 28.2104 39.0845 28.3027 39.1754 28.2496C39.3122 28.1387 41.8779 26.4663 42.3581 26.2966ZM26.6849 40.6356C26.4947 40.872 26.3791 40.896 26.3185 41.0244C26.298 41.0681 26.3594 41.1198 26.2883 41.2671C26.4176 41.0567 26.5499 40.8461 26.6849 40.6356ZM44.3276 24.8554C44.7169 24.7847 43.1673 25.5199 43.1148 25.5462C42.8172 25.6167 44.0051 24.9005 44.3276 24.8554ZM32.9248 33.1977C32.9689 33.1577 33.903 32.3098 33.8591 32.2754C33.5792 32.4661 32.3664 33.639 32.9248 33.1977ZM26.1845 41.4377C25.94 41.7953 25.4137 42.5147 25.5695 42.4888C25.5699 42.4882 25.5702 42.4876 25.5706 42.487C25.7708 42.1312 25.9815 41.773 26.1845 41.4377ZM63.1079 26.9808C63.5873 28.0702 63.5717 27.4449 62.9442 26.5505C62.6422 26.3675 63.026 26.8029 63.1079 26.9808ZM64.6506 30.2084C64.7894 30.5076 65.4549 33.2692 65.4754 32.8335C65.514 32.6551 65.0306 31.1023 64.9905 31.007C64.9664 30.8874 65.2765 31.3779 64.9684 30.4991C64.9396 30.5632 64.6321 30.1087 64.6506 30.2084ZM63.5349 27.8613C63.964 28.9291 64.341 28.9774 63.9549 28.2492C63.787 27.9507 63.4679 27.7079 63.5349 27.8613ZM60.2609 24.5989C60.5486 24.8098 61.2561 25.3617 61.837 25.7834C61.8927 25.8239 61.9473 25.8632 62.0006 25.9007C61.9525 25.8547 61.9039 25.8092 61.8548 25.7642C61.1738 25.1424 60.4636 24.624 59.6567 24.1685C59.5254 24.1688 59.9915 24.3902 60.2631 24.6003C60.2623 24.5998 60.2616 24.5994 60.2609 24.5989ZM0.618357 25.6511C1.02731 26.1031 0.0817757 25.0645 0.0294447 25.0296C-0.0942974 24.9028 0.439674 25.4461 0.618357 25.6511ZM33.9948 81.9509C33.8265 82.0122 33.629 81.9435 33.3858 82.2395C33.7619 82.1194 34.1479 81.988 34.5268 81.8581C34.583 81.4439 34.1803 81.8839 33.9948 81.9509ZM32.2001 81.9404C32.2382 81.9034 31.7385 81.7052 32.4659 81.5499C32.9638 81.4441 31.0476 83.0816 30.5456 83.1687C30.9083 82.8053 31.8686 82.2561 32.2001 81.9404ZM27.4813 82.7519C27.4383 82.7367 28.1914 82.1858 28.2945 82.1476C28.8441 81.9507 27.7218 82.8369 27.4813 82.7519ZM30.0061 81.1786C29.5938 81.3551 30.3608 80.7564 30.6248 80.6309C30.6981 80.6841 30.0703 81.1511 30.0061 81.1786ZM3.80772 30.8965C3.98852 31.3451 4.16865 31.7379 3.88134 31.0521C3.86744 31.0194 3.80004 30.8774 3.80772 30.8965ZM27.9878 81.8688C28.4014 81.7059 27.6278 82.2806 27.3552 82.3914C27.2862 82.334 27.926 81.8945 27.9878 81.8688ZM3.91884 31.2191C4.15137 31.8162 4.08826 31.5983 4.06046 31.5231C3.9492 31.2122 3.48302 30.179 3.37504 29.9747C4.08709 31.5121 3.79856 30.9423 3.91884 31.2191ZM4.89746 34.0073C5.06584 34.5782 4.64978 33.1146 4.53943 32.8459C4.63621 33.1251 4.85242 33.844 4.89746 34.0073ZM5.66791 37.5305C5.72204 37.8458 5.84957 38.7866 5.87412 38.9448C5.83297 38.5971 5.69989 37.6623 5.66791 37.5305ZM5.75667 38.2485C5.81526 38.7439 5.86023 38.8588 5.77302 38.2898C5.76954 38.2677 5.75462 38.2303 5.75667 38.2485ZM6.03932 41.0398C6.04803 41.3663 6.10421 41.7359 6.07152 41.2077C6.06106 41.0509 6.03839 41.0051 6.03932 41.0398ZM4.18484 31.9761C4.34287 32.4176 4.55233 32.985 4.21868 32.0402C4.34135 32.3699 4.45756 32.7026 4.56705 33.0364C4.15893 31.7892 4.15539 31.8925 4.02554 31.5394C3.83299 31.05 3.85479 31.0849 3.89945 31.1812C3.74202 30.7787 2.97423 29.1088 2.40792 28.2082C2.89684 29.0038 3.56182 30.3657 3.89649 31.2226C3.99482 31.4659 4.08952 31.7019 4.16723 31.9117C4.29061 32.2485 4.17593 31.9514 4.1842 31.9744C4.18441 31.975 4.18462 31.9756 4.18484 31.9761ZM6.14638 44.725C6.11302 45.687 6.16646 45.081 6.16218 44.5339C6.16184 44.5106 6.14719 44.701 6.14638 44.725ZM26.1757 81.3627C27.325 80.8629 26.7254 81.57 28.658 79.8275C27.9072 80.6572 28.7188 80.0227 28.6048 80.2309C28.5114 80.3988 27.9421 80.689 28.349 80.6298C27.8428 80.7462 26.0791 81.9268 25.9754 81.9468C25.9762 81.9464 25.9769 81.9459 25.9777 81.9454C25.919 81.9595 25.8069 81.5193 26.1757 81.3627ZM5.59995 37.5472C5.61667 37.8697 5.69063 37.9846 5.74513 38.6136C5.90894 39.4376 5.4156 36.3194 5.32778 35.9453C5.98606 39.3127 4.89655 33.7188 5.33952 36.074C4.92747 34.1442 5.19458 35.4441 5.12387 35.1481C5.04978 34.8309 4.76245 33.7531 4.76565 33.811C4.76582 33.8115 4.76599 33.8121 4.76616 33.8127C4.95458 34.4688 5.11906 35.1307 5.26236 35.7978C5.14259 35.1398 5.43505 36.5042 5.48834 36.9749C5.52692 37.1653 5.56414 37.3562 5.59995 37.5472ZM4.78477 33.7732C4.81242 33.8359 5.18777 35.2724 5.16255 35.18C5.13755 34.9816 4.55512 32.9547 4.78477 33.7732ZM2.15441 27.8042C2.44366 28.2545 2.84419 28.9771 2.97972 29.2348C2.7353 28.7592 2.31502 28.0474 2.15441 27.8042ZM5.13986 54.5C5.03735 55.1729 5.40857 53.1169 5.28267 53.7089C5.27734 53.7414 5.1479 54.4575 5.13986 54.5ZM5.81598 39.0766C5.88133 39.7639 5.88321 39.4354 5.81317 38.9281C5.80912 38.8988 5.81289 39.0448 5.81598 39.0766ZM26.9866 80.7733C26.9551 80.6407 28.4918 79.7488 28.7577 79.5607C28.677 79.7707 27.033 80.9311 26.9866 80.7733ZM1.62916 27.0234C2.24411 27.8937 2.9354 29.1614 3.00316 29.304C3.07501 29.4439 2.95789 29.2269 2.97418 29.2589C3.02585 29.3249 3.73451 30.8403 3.75262 30.9209C3.77546 30.9742 3.6657 30.6916 3.80218 31.0089C3.59319 30.363 2.12954 27.6711 1.99536 27.5644C1.92507 27.4634 2.43959 28.2362 1.63022 27.0249C1.62987 27.0244 1.62952 27.0239 1.62916 27.0234ZM3.18023 29.6573C2.99863 29.2805 3.51587 30.3331 3.6208 30.5969C3.87379 31.174 3.21621 29.7001 3.18023 29.6573ZM4.26842 32.2551C4.31919 32.3797 4.68686 33.5281 4.71488 33.627C4.5681 33.0745 4.17068 31.9677 4.26842 32.2551ZM6.0481 45.4769C6.04325 45.7852 5.99507 46.6543 6.0027 46.7001C6.0191 46.3915 6.05927 45.521 6.0481 45.4769ZM31.3782 76.495C30.9223 76.7113 31.8155 76.0006 32.1062 75.8355C32.1701 75.8857 31.4184 76.4774 31.3782 76.495ZM5.75564 39.2025C5.81482 39.3822 6.04466 43.1501 6.00985 43.6854C6.0569 43.1615 5.83441 39.4251 5.77276 39.2614C5.76656 39.2122 5.75344 39.179 5.75564 39.2025ZM3.87131 31.2744C3.73795 30.9539 3.65363 30.7436 3.63653 30.7032C3.47304 30.3062 3.08359 29.5052 3.17159 29.6794C3.51925 30.3542 4.13567 31.9127 3.87131 31.2744ZM5.96621 45.7426C5.92411 47.0303 6.02877 44.5656 5.99636 44.8889C5.99612 44.9109 5.97177 45.6115 5.96621 45.7426ZM5.70433 38.7834C5.71059 38.4972 5.05338 34.7737 4.83501 34.2006C4.98541 34.7226 5.08277 35.1506 5.23336 35.865C5.27341 36.0578 5.26805 36.0051 5.27236 36.0259C5.33965 36.3603 5.28335 36.1113 5.32365 36.3177C5.37591 36.4436 5.78253 39.1737 5.70433 38.7834ZM3.7939 31.092C3.74001 30.8844 2.71566 28.7525 2.64154 28.6827C2.32893 28.0425 3.77833 30.8977 3.7939 31.092ZM5.72912 39.13C5.67658 38.7262 5.41882 36.8705 5.6101 38.1387C5.62829 38.2595 5.687 38.7761 5.72912 39.13ZM5.94432 45.6062C5.9456 45.6689 5.87366 47.0078 5.87796 47.0266C5.9024 46.8423 5.98051 44.8892 5.94432 45.6062ZM5.93479 44.9166C5.93392 44.9486 5.95919 44.6364 5.94063 45.2614C5.93789 45.3159 5.92081 45.4019 5.8921 46.1975C5.88609 46.3578 5.88608 46.6045 5.88785 46.5867C5.97741 45.7623 5.95118 43.2956 5.93479 44.9166ZM3.77287 31.0539C3.81819 31.1731 3.69676 30.891 3.59051 30.6351C3.54446 30.5257 3.63864 30.7262 3.77287 31.0539ZM5.62245 49.8285C5.69653 49.0532 5.40508 51.476 5.37968 51.6006C5.40819 51.5228 5.62036 49.9141 5.62245 49.8285ZM31.5507 74.8676C31.5502 74.8679 31.5498 74.8683 31.5493 74.8686C32.0591 74.5265 31.8381 74.8553 31.863 74.8417C33.0265 74.1869 32.5614 74.1724 32.702 74.021C32.9984 73.6937 33.1714 74.0079 33.6516 73.4348C32.8394 74.3616 33.6479 73.5992 33.7555 73.6719C34.1951 73.9773 32.3283 74.5066 31.9035 74.9559C31.845 75.02 32.4506 74.7626 32.3058 74.9325C31.8343 75.4947 29.5892 76.1574 31.5507 74.8676ZM3.50462 30.4395C3.4085 30.1498 2.33218 28.1073 2.61859 28.648C2.69542 28.72 3.70825 30.8378 3.50462 30.4395ZM31.6125 53.1102C31.8035 52.8987 31.2281 53.2051 31.1764 53.2585C31.1391 53.3084 31.5175 53.2226 31.6125 53.1102ZM28.7839 52.3571C28.7481 52.2779 28.4236 52.0666 28.5129 52.3283C28.525 52.3638 28.7529 52.3939 28.7839 52.3571ZM28.2341 28.1068C28.7191 28.2939 28.7169 28.1692 28.3494 28.0758C28.2175 28.0457 28.2184 28.1014 28.2341 28.1068ZM34.3837 47.8103C34.3647 47.8724 34.1859 48.5296 34.2263 48.5204C34.328 48.2855 34.522 47.4399 34.3837 47.8103ZM28.0685 28.0905C28.3156 28.1242 28.0402 27.9948 27.7006 27.9718C27.6138 27.9657 27.5252 27.9655 27.4434 27.9738C27.5128 27.9789 27.6042 27.9917 27.6969 28.008C27.8746 28.0394 28.0473 28.0878 28.0685 28.0905ZM5.80019 40.5467C5.83737 40.8844 5.88602 41.8461 5.90054 42.3982C5.89165 42.4594 5.83851 40.939 5.80019 40.5467ZM29.0676 52.8734C28.9039 52.8239 29.0416 52.9772 29.1953 53.0383C29.2698 53.0692 29.3218 53.0771 29.3125 53.0436C29.3098 53.0403 29.2708 53.0163 29.2193 52.9841C29.1476 52.9361 29.073 52.8749 29.0676 52.8734ZM12.8322 38.6725C13.028 38.2766 12.2945 39.4715 12.5309 39.1611C12.5416 39.145 12.82 38.6949 12.8322 38.6725ZM10.0479 44.1533C10.187 43.8434 10.7862 42.5346 10.5286 43.0335C10.4864 43.1093 10.0342 44.1203 10.0479 44.1533ZM32.6422 73.8924C32.3812 73.8476 33.1979 73.2644 33.33 73.2001C33.3843 73.1753 32.9855 73.9503 32.6422 73.8924ZM31.1487 29.6518C31.3591 29.8181 31.84 30.3693 31.9441 30.4469C31.7293 30.1757 31.1331 29.5252 31.1487 29.6518ZM30.3403 53.3171C30.1634 53.2018 29.7537 53.0832 29.8167 53.2526C30.2814 53.362 29.8207 53.1472 30.3403 53.3171ZM26.2133 28.0212C26.4454 28.022 26.6248 27.9371 26.5984 27.9319C26.3393 27.8849 25.9794 27.9928 26.2133 28.0212ZM35.0928 41.2235C35.0472 41.2411 35.0678 42.0743 35.0988 41.9625C35.1125 41.9262 35.1346 41.2096 35.0928 41.2235ZM5.17647 52.4288C5.09795 52.8386 5.2857 51.5828 5.3489 51.2079C5.39712 51.0355 5.19169 52.3661 5.17647 52.4288ZM19.9894 30.2757C19.9821 30.3302 21.0292 29.6022 20.5853 29.8424C20.4725 29.8989 19.987 30.2532 19.9894 30.2757ZM11.9941 40.3453C12.3733 39.4854 10.5586 42.9828 11.0813 42.0846C11.1107 42.0162 11.9534 40.4128 11.9941 40.3453ZM9.26923 46.19C9.33452 46.0404 9.41668 46.1567 9.12788 46.7683C9.09011 46.8487 9.20997 46.4524 9.17688 46.5173C9.15399 46.5529 8.6197 47.9231 8.60334 47.9883C8.58151 48.0576 8.64642 47.989 8.62527 48.0595C8.60077 48.1368 8.26466 48.9825 8.11509 49.4303C7.83032 50.2774 7.83345 50.3801 7.81026 50.4492C7.74488 50.6531 7.61739 50.9846 7.49024 51.4026C6.83669 53.4884 6.07487 56.7403 5.73034 58.4397C6.02896 56.93 6.33229 55.4848 6.70943 54.0021C6.64517 54.4441 7.25697 51.817 6.90364 53.3572C7.00932 52.6272 8.9895 46.6531 9.26857 46.1916C9.26879 46.1911 9.26901 46.1905 9.26923 46.19ZM28.8482 51.4433C28.9031 51.692 29.1013 50.5038 29.0643 50.2971C28.9618 50.5113 28.8181 51.4423 28.8482 51.4433ZM30.6712 52.8852C30.7231 52.8521 30.6584 52.7085 30.9797 52.6736C30.98 52.6735 30.9803 52.6734 30.9805 52.6732C31.0828 52.6532 31.0075 52.7429 31.032 52.7489C31.0328 52.7632 31.4048 52.6483 31.1508 52.8175C30.7934 53.0153 31.0382 52.7218 30.8604 52.7924C30.8368 52.8102 30.5925 52.9561 30.6085 52.9713C30.6113 52.9744 30.6924 52.9439 30.7093 52.9497C30.7747 52.9742 30.7671 53.0356 30.7757 53.0369C30.7917 53.0367 30.9122 52.9911 31.0727 52.8987C31.2261 52.8149 31.4333 52.6579 31.5118 52.6491C31.5422 52.644 31.2545 52.9058 31.0208 53.0132C30.7861 53.1315 30.5806 53.143 30.558 53.1372C30.5356 53.1282 30.5244 52.9615 30.5036 52.9448C30.5087 52.9455 30.1496 52.9641 30.0724 52.9186C30.0561 52.9096 30.0435 52.9011 30.0343 52.8944C30.104 52.9755 29.6423 52.8164 29.6672 52.7531C29.6918 52.742 29.9975 52.8677 30.0067 52.8696C30.011 52.8726 30.0146 52.8761 30.018 52.8788C29.9975 52.8399 30.2274 52.8916 30.3742 52.8858C30.5228 52.8839 30.6179 52.8502 30.5514 52.8073C30.7 52.7481 30.5549 52.9465 30.6712 52.8852ZM31.7763 52.0422C31.7593 52.0861 31.7424 52.1291 31.7254 52.1712C32.2143 51.6159 32.8891 50.6742 33.3431 49.5232C33.4592 49.2271 33.2353 49.5299 33.4062 49.1583C33.5421 48.86 33.7474 48.5204 33.7089 48.7039C33.7001 48.7554 33.4201 49.3714 33.2908 49.6876C32.9218 50.5829 33.0883 50.3816 33.07 50.4375C33.0443 50.503 32.7208 50.9934 32.56 51.2473C32.1674 51.8649 31.9861 52.2116 31.3859 52.6071C31.6556 52.3084 31.3938 52.3812 31.7763 52.0422ZM16.091 34.2423C16.0816 34.3001 15.5556 34.9129 15.3794 35.1588C15.3823 35.0997 15.9033 34.4733 16.091 34.2423ZM54.0775 45.5022C54.1427 45.7747 54.8198 44.1512 54.5281 44.5401C54.4626 44.6361 54.1658 45.2935 54.0775 45.5022ZM56.3352 38.1929C56.3311 37.9731 56.0762 38.8246 56.1886 38.8338C56.2271 38.8424 56.3382 38.2211 56.3352 38.1929ZM34.5155 38.297C34.5098 38.2532 34.4324 37.6039 34.4307 37.5832C34.456 37.1377 34.6988 39.2796 34.5155 38.297ZM55.8293 32.3248C55.8788 32.3383 55.8846 32.2879 55.8722 32.2435C55.7357 32.0689 55.5228 31.9105 55.6186 32.0847C55.6243 32.0944 55.7395 32.2124 55.8178 32.3025C55.8226 32.3144 55.8275 32.3244 55.8293 32.3248ZM54.729 31.5672C54.8196 31.592 55.1143 31.7994 55.1322 31.7667C55.1774 31.706 54.8131 31.468 54.729 31.5672ZM26.0735 28.2637C26.1644 28.3221 25.1307 28.3352 24.7765 28.4255C24.6756 28.3627 25.7197 28.2651 26.0735 28.2637ZM31.4114 30.5088C30.0122 29.0365 29.2565 28.9272 29.4042 28.9156C29.5236 28.9658 30.5025 29.3039 31.5979 30.6688C31.5628 30.7069 31.5834 30.7014 31.4114 30.5088ZM27.0144 28.3271C27.1233 28.3027 27.3918 28.322 27.6608 28.3627C27.773 28.3798 27.8819 28.4009 27.9749 28.4204C27.9493 28.4298 27.8204 28.4101 27.6581 28.3894C27.428 28.3597 27.1497 28.3315 27.0144 28.3271ZM53.0044 47.3498C53.0071 47.0126 53.7098 45.8505 53.6696 46.0863C53.6602 46.156 53.0374 47.4783 53.0044 47.3498ZM34.3856 37.9053C34.3266 38.0266 34.116 36.5936 34.0975 36.4818C34.0851 36.0246 34.3675 37.7827 34.3856 37.9053ZM20.128 30.5328C19.9501 30.7159 19.3494 31.1442 18.9888 31.4576C19.1241 31.282 19.8032 30.7567 20.128 30.5328ZM23.0053 28.9978C22.9805 29.0048 22.4129 29.2369 22.3866 29.2509C21.8994 29.4016 23.5107 28.7454 23.0053 28.9978ZM29.904 74.1348C29.9193 74.1176 30.3386 73.8239 30.3564 73.8179C30.8228 73.6705 29.5618 74.5535 29.904 74.1348Z" fill="#1A1A1A"/>
</svg>
