<svg width="110" height="104" viewBox="0 0 110 104" fill="none" xmlns="http://www.w3.org/2000/svg">
<path d="M76.8047 91.3447C76.969 91.1332 77.7434 90.4017 78.0456 90.0558C77.9005 90.6381 76.2156 92.1107 76.8047 91.3447ZM86.428 44.6423C86.3414 44.9561 86.2525 45.2716 86.161 45.5887C86.6218 44.7728 87.1036 43.6822 87.523 42.9169C87.5913 42.7933 87.6011 43.1945 87.7486 42.8958C87.8952 42.5974 87.6456 42.5597 87.82 42.1147C88.0225 41.6241 89.1459 39.4406 89.4402 38.6574C90.5859 35.7237 91.4221 32.7253 92.1841 29.843C91.62 32.8537 92.5484 29.9161 92.6423 29.0138C92.6447 28.818 92.3081 28.7876 92.838 25.8512C93.0928 24.042 93.6067 25.6971 93.441 22.7214C92.9194 25.0176 93.1261 22.6826 93.0098 21.1025C93.021 20.8004 92.8201 18.7062 92.5632 18.1094C92.4893 17.884 92.1757 17.6425 92.0814 17.442C92.0163 17.3014 92.0611 17.1281 91.9631 16.9644C91.8574 16.7882 91.7581 16.6556 91.6752 16.5567C90.9152 15.797 90.1931 15.3281 89.1045 14.9628C90.0814 14.7174 88.4812 14.541 88.3716 14.534C88.1795 14.4291 88.5447 14.4416 88.8453 14.4754C89.1443 14.508 89.4001 14.5535 89.0813 14.4163C88.1532 14.1809 87.0185 14.0926 85.7678 14.1818C86.7923 14.1853 84.4493 14.6935 83.9436 14.6568C84.0949 14.8614 82.5713 14.9881 80.7463 15.436C78.9426 15.8529 76.8811 16.5973 76.3985 16.9086C76.2015 17.0537 77.6907 16.5096 74.3926 18.0713C74.0348 18.2493 74.1037 18.0668 73.9242 18.1772C73.8176 18.2433 73.3456 18.9639 72.5332 19.1773C72.233 19.2791 73.7346 18 70.1797 20.3417C71.8148 19.7056 65.4001 23.8414 64.282 24.7742C64.5377 24.6357 64.7939 24.4991 65.0505 24.3645C63.8589 25.1274 63.7559 25.4013 63.5069 25.5961C62.502 26.3906 61.0981 27.4553 60.2306 28.2881C59.2204 29.262 59.3968 29.4163 58.1741 30.5098C58.4834 30.2711 58.8 30.0297 59.1093 29.8008C58.2992 30.576 57.5018 31.3755 56.7402 32.1748C58.2746 30.0985 56.345 32.5632 56.2116 32.7371C55.9973 32.9901 56.2204 32.5546 55.8611 32.9763C55.826 33.0205 55.9668 33.036 55.4178 33.6779C54.2926 35.0141 54.3504 34.7387 53.881 35.3066C53.8417 35.3591 54.0619 35.2421 53.2975 36.2424C50.9123 39.5037 53.241 36.1557 53.3285 36.05C53.4556 35.8779 52.1748 36.7039 54.5318 34.1056C53.7293 34.9772 53.5107 34.9509 53.4217 35.0499C53.3358 35.1366 52.1273 36.7291 52.0678 36.8347C51.5315 37.6668 52.1579 37.0433 52.0625 37.2117C51.9726 37.3419 50.4521 39.2029 50.502 39.8743C49.5957 40.6346 50.5474 39.1344 51.6284 37.5591C51.7235 37.2869 50.4551 38.9627 50.3992 39.0689C48.9464 41.3204 50.018 40.2136 49.867 40.8019C49.7867 41.117 49.0725 41.9416 49.8055 41.2157C48.6529 43.2642 49.2364 41.9584 49.1351 42.0816C48.9927 42.2636 48.6877 42.9964 48.6311 43.0917C48.5498 43.2193 48.7043 42.7153 48.4085 43.2298C48.3593 43.3176 48.0887 44.2142 48.6915 43.1669C47.9561 44.6039 48.1907 44.4728 47.7232 44.886C47.802 46.0242 47.1733 45.49 47.0105 45.8601C46.617 46.8272 47.0967 46.6404 47.095 46.6956C47.0996 46.8963 46.8954 47.5946 46.7969 48.2707C46.6935 48.9111 46.7108 49.4246 46.7534 49.5512C46.4403 49.5581 46.7483 48.2091 46.8204 47.7632C46.8637 47.1346 46.7253 47.5493 46.5908 48.0394C46.4599 48.5083 46.3686 48.9308 46.2231 48.5371C46.287 48.8689 46.381 49.2055 46.4909 49.4256C46.3995 49.6554 46.3211 49.6223 46.2858 49.6774C46.2534 49.7164 46.2597 49.9296 46.4221 50.2586C46.526 50.2666 46.4741 50.1661 46.4262 50.033C46.3767 49.9017 46.3305 49.7137 46.4177 49.7873C46.5171 49.9059 46.6513 50.2565 46.6951 50.2223C46.7421 50.2135 46.5848 49.9271 46.68 49.9406C46.7862 49.9929 46.8451 50.2112 46.9339 50.3739C46.9776 50.46 47.0303 50.5434 46.9995 50.5512C46.9727 50.5601 46.8474 50.491 46.7317 50.3339C46.8313 50.5096 46.7377 50.9369 47.1557 51.0838C47.3695 51.1493 46.6632 50.2273 47.7136 50.8521C47.9672 50.9725 48.2668 51.108 48.5818 51.2261C48.5947 51.3495 48.0995 51.1654 47.679 50.9301C47.529 50.8432 47.4456 50.7775 47.436 50.7768C47.3915 50.7724 47.3832 51.2068 47.4178 51.2442C47.4267 51.2554 47.4582 51.2762 47.5128 51.3054C47.8548 51.4889 48.7037 51.8026 49.3301 51.8548C49.9789 51.9277 50.4678 51.8009 50.7323 51.7945C50.601 51.7223 51.005 51.6146 51.5338 51.2686C52.0662 50.9401 52.711 50.2828 52.7956 50.1295C52.8437 50.0497 52.5165 50.2288 52.5724 50.1462C52.9292 49.7018 54.1913 48.219 54.6083 47.3117C55.0918 46.3211 54.9162 46.4064 54.946 46.3507C55.1432 45.905 55.0566 46.2899 55.1726 46.0121C55.3974 45.6076 56.3813 42.5377 56.3735 42.3434C56.381 42.2955 56.1339 42.7931 56.2904 42.0887C56.3065 41.9606 56.4706 42.0899 56.825 39.9549C57.2057 37.373 56.329 41.7098 56.3786 40.617C56.901 39.0078 56.6656 39.0324 56.7556 38.5875C56.7848 38.4356 57.1252 37.2851 57.2176 36.0014C57.1684 36.9233 57.0896 37.8421 56.98 38.7536C57.1538 37.8638 57.2985 36.1112 57.3728 35.3557C57.4113 34.9894 57.5327 35.2978 57.5688 34.5005C57.5682 34.3303 57.2966 33.6573 57.3094 35.7401C57.1795 35.9007 57.3288 34.9146 57.3132 34.456C57.3105 34.3859 57.1299 34.1121 57.2672 33.5253C57.2778 33.3859 57.9086 34.9145 57.4399 30.9499C57.4226 30.823 57.3672 31.2716 57.3486 31.1475C57.3392 31.0629 57.3229 30.049 57.3033 29.9385C57.2865 29.8254 57.2377 30.3193 57.2152 30.1847C57.1018 29.4982 57.3325 28.5529 57.4066 29.9931C57.4158 29.5086 57.4164 29.024 57.4082 28.5404C57.2316 29.0809 57.2795 27.7923 57.1818 27.135C56.4872 22.9465 56.7826 25.7875 56.5968 25.0826C56.2578 23.9744 56.8166 24.7528 56.3178 23.0978C56.2477 22.9583 56.6839 24.9642 55.6693 21.0816C55.8538 21.6395 56.025 22.2153 56.1769 22.7843C56.3069 22.3931 55.5704 20.7242 55.516 20.6119C54.962 19.1716 55.4296 20.0766 54.4313 18.0541C54.3377 17.8748 54.1909 17.4562 53.9721 17.0971C53.0773 15.6004 54.9715 19.1991 54.8677 19.3924C54.9316 19.3985 52.9624 15.4894 52.8145 15.4583C52.5526 14.8808 53.8676 17.073 53.6931 16.6144C53.6615 16.5252 52.8756 15.1147 51.7942 13.9101C50.7223 12.6654 49.3453 11.7532 48.8711 11.4804C47.7858 10.8252 47.2849 10.4573 47.199 10.7086C46.9296 10.3278 46.5654 10.4224 46.4106 10.3808C45.9174 10.2492 45.5268 10.1798 45.1996 10.1316C44.1944 10.0059 43.8464 9.9611 42.4445 10.0179C42.034 10.0404 41.6725 9.99665 41.5266 10.0253C41.4424 10.0429 41.612 10.1057 41.2 10.1806C40.6249 10.1777 37.1759 11.0773 36.92 11.2337C36.6473 11.2814 38.3447 10.6734 38.0176 10.7225C36.7793 11.1352 35.6345 11.6865 34.452 12.366C33.9615 12.6524 34.1872 12.4618 33.9774 12.5879C33.884 12.6205 32.2645 13.7773 32.3552 13.7532C32.442 13.7112 33.7329 12.7798 34.9019 12.1578C36.059 11.5266 37.0744 11.146 36.3823 11.4903C36.1143 11.6203 35.1136 12.002 35.333 12.0492C30.6062 14.5039 26.5829 18.8564 23.2823 23.6387C25.0957 20.8101 27.5354 17.9385 30.039 15.6793C30.3829 15.3511 31.5742 14.3867 31.3918 14.454C29.1472 16.2001 26.6984 18.915 24.9483 21.1713C24.8918 21.2433 25.0504 20.9439 24.8358 21.2112C24.422 21.7116 23.2929 23.458 23.0786 23.7512C23.0389 23.7965 23.6588 22.7709 23.4143 23.046C22.7851 23.757 22.8726 24.0888 22.4316 24.7581C22.0604 25.2629 19.8228 28.8064 19.4148 29.7939C18.9443 30.803 20.953 27.1008 20.8752 27.4111C19.4941 29.8919 18.1187 32.4464 17.0009 34.92C16.9813 34.9635 17.1958 34.6043 16.951 35.1571C16.5276 36.1209 16.3597 36.3529 16.1466 36.8198C15.9129 37.3217 15.1762 39.1393 15.0622 39.3774C15.047 39.4075 15.1368 39.0167 15.1578 38.9601C15.4531 38.1572 15.6474 37.9072 15.6779 37.8356C15.793 37.5672 15.8753 37.2915 15.9813 37.0472C16.1564 36.6451 16.2784 36.4351 16.5143 35.9063C16.6777 35.5422 16.469 35.8725 16.6276 35.522C16.6834 35.3904 17.4367 34.0637 17.3763 33.8815C17.1947 33.7375 12.546 45.3422 12.3734 46.617C12.7109 45.5939 13.0614 44.5834 13.4288 43.5729C12.6725 45.6174 12.0002 48.1447 11.8215 48.2941C10.5859 52.4246 9.57345 56.6482 8.8673 60.8824C8.86271 60.9085 8.86203 60.9196 8.86328 60.8885C8.85367 60.8408 8.90416 60.8319 8.79388 60.4422C8.77915 60.4039 8.71194 60.1836 8.50354 59.9628C8.30905 59.7289 7.81016 59.4961 7.41436 59.5519C7.01934 59.5952 6.8188 59.7514 6.70019 59.8424C6.58155 59.9404 6.52846 60.0093 6.48808 60.0607C6.3512 60.2527 6.36626 60.2692 6.3625 60.2682C6.35942 60.2769 6.36142 60.2746 6.36556 60.2658C6.38367 60.2292 6.43402 60.0859 6.45896 60.0136C6.49026 59.9222 6.52607 59.8113 6.56529 59.6832C6.59625 59.5842 6.6256 59.4883 6.65818 59.3781C6.8016 58.8851 6.90623 58.5035 7.03128 58.0183C7.26057 57.1338 7.48457 56.1679 7.67771 55.2771C8.0764 53.4315 8.41896 51.5464 8.70458 49.6771C8.91872 48.2564 8.87721 49.0333 9.15719 46.6729C9.06833 47.2781 8.97228 47.8902 8.86926 48.5046C9.09388 47.2937 9.63676 41.9025 9.63745 41.0111C9.64102 40.8967 9.61773 40.7481 9.67384 39.3848C9.71744 38.1824 9.74551 37.995 9.76294 37.3477C9.77621 36.8006 9.77058 36.2019 9.77175 36.0409C9.77277 35.9182 9.78924 35.8694 9.79014 35.5733C9.78859 34.6363 9.75564 35.3985 9.78913 34.4634C9.79605 34.6909 9.80196 34.9179 9.8069 35.1445C9.8014 34.0085 9.76012 32.4782 9.82758 34.1331C9.83706 34.4173 9.81588 34.1739 9.82116 34.3857C9.79393 42.7435 9.95387 36.069 9.78947 33.1455C9.8149 32.3832 9.44726 28.1946 9.40284 28.056C9.38434 27.8617 9.48563 28.5767 9.38282 27.6353C9.42548 27.4278 8.41154 21.8823 8.7982 23.8746C8.89889 24.2816 9.32946 26.9515 9.39479 27.6001C9.26967 26.0688 8.53634 22.5453 8.42275 22.1574C8.0646 20.5659 9.13584 25.2086 8.32519 21.6239C7.62484 18.8865 8.27398 21.4588 7.99124 20.4099C7.86068 19.8117 6.88351 16.7654 6.87075 16.8616C6.48973 15.8319 6.71992 16.4317 6.67405 16.3041C6.63971 16.176 5.82064 14.1757 5.50869 13.5471C5.47291 13.4699 5.59315 13.7091 5.55642 13.6292C5.49896 13.4674 4.55019 11.6094 4.49602 11.5431C4.47069 11.4962 4.70346 11.9359 4.60497 11.7567C4.50414 11.5398 3.48567 9.81035 3.41221 9.72452C3.34471 9.58355 4.60214 11.7184 4.38301 11.3682C3.84142 10.3634 2.82151 8.80017 2.37071 8.19588C2.48336 8.34371 3.1092 9.25562 3.31255 9.58425C3.22768 9.42108 1.85811 7.47744 2.32997 8.13969C2.02422 7.72178 2.23184 8.00801 2.05774 7.77383C2.01411 7.71183 1.56495 7.1236 1.47624 7.01601C1.46569 6.9992 1.92971 7.60299 1.83582 7.48289C1.68392 7.24882 0.257776 5.53911 0.11488 5.41368C-0.228513 5.02797 0.988305 6.39274 1.0732 6.51667C1.0952 6.52808 0.07707 5.35691 0.0524072 5.34509C0.000240186 5.27196 1.13599 6.57297 1.00225 6.42643C0.729355 6.09972 0.44849 5.77798 0.159453 5.46149C1.30776 6.65401 3.07113 9.12605 3.46732 9.80383C2.18626 7.73265 0.486966 5.81647 0.487594 5.82362C0.492748 5.82229 1.17843 6.61971 1.14937 6.59041C1.05928 6.46561 0.0884486 5.37081 0.0444312 5.33587C0.0139663 5.30319 -4.40942e-06 5.28832 0 5.28831C0.0144048 5.27915 1.38635 6.8474 1.43668 6.9374C1.54914 7.0711 0.963368 6.35697 0.961484 6.35981C0.98947 6.37945 1.91976 7.52701 1.60721 7.13807C1.30113 6.73928 0.446035 5.76233 0.410612 5.7317C0.258033 5.53889 1.73303 7.25751 1.76006 7.32438C1.78528 7.34689 1.01699 6.40796 0.988718 6.38415C0.97172 6.36018 1.56504 7.06445 1.79065 7.35424C1.96141 7.56688 1.4668 6.94564 1.55384 7.05536C1.63145 7.12147 2.91967 8.83802 2.96426 8.93348C3.05431 9.06161 2.76927 8.6495 2.81121 8.70917C2.87325 8.79182 3.26334 9.36293 3.21282 9.28874C3.19921 9.2158 1.6021 7.05897 1.59039 7.08768C1.62483 7.10038 3.35153 9.36388 1.73839 7.262C1.72715 7.24541 1.31894 6.75109 1.30605 6.73824C1.04839 6.43659 2.39013 8.0005 0.745671 6.09049C3.75196 9.69667 1.13731 6.52073 1.58177 7.05579C1.76564 7.25347 2.87057 8.70379 2.86565 8.71665C2.76592 8.57075 2.41859 8.10618 2.29812 7.94962C2.2398 7.8583 3.20383 9.17048 2.98827 8.87413C2.88988 8.7125 1.83697 7.33832 1.78208 7.28914C1.34743 6.75855 1.8826 7.40736 1.7874 7.29071C1.72642 7.20767 1.05337 6.41739 1.03153 6.39895C1.00775 6.36187 1.92464 7.43827 2.10318 7.6772C2.24456 7.85229 1.71681 7.1928 1.8148 7.31543C2.42499 8.04122 3.59225 9.67279 2.44958 8.11223C2.38011 8.01674 1.92472 7.44191 1.90951 7.42625C1.62654 7.07188 2.4735 8.12451 2.61354 8.32046C2.86913 8.64669 1.68619 7.11055 2.66936 8.38838C1.93787 7.42469 1.51236 6.9013 0.552597 5.86276C3.14325 8.79715 3.92765 9.94863 1.19428 6.56384C2.0966 7.60535 1.98995 7.50313 2.25089 7.82172C2.42435 8.0138 3.59839 9.63919 3.0687 8.88781C3.00705 8.79026 2.26379 7.82345 2.49827 8.12499C4.24205 10.4743 2.54839 8.16537 2.53607 8.17052C2.70578 8.09063 6.4927 14.1945 6.81951 15.4194C7.4036 16.7255 7.85649 17.9202 7.96242 18.2121C8.30627 19.178 8.01226 18.3793 8.08546 18.5965C8.18035 18.8094 9.0647 21.5898 9.08289 21.7368C9.22707 22.2833 9.06239 21.7332 9.07713 21.7901C9.28914 22.4577 10.1533 26.2829 10.2934 27.3721C10.3075 27.3344 9.90674 25.17 10.1759 26.5188C10.4789 28.0925 10.4235 28.1954 10.4308 28.236C11.5266 35.4972 11.4444 42.9095 10.6433 50.2053C10.7345 50.1178 11.1062 45.3255 11.0916 45.2196C11.2312 44.5856 10.4991 52.6679 10.2428 53.6513C10.3673 52.8888 10.4762 52.1642 10.5821 51.3984C10.4943 52.7112 9.99993 55.5273 9.66719 57.3703C9.56857 57.9424 9.80378 56.8496 9.80206 56.8603C9.71367 57.5106 9.46361 58.63 9.59471 57.7893C9.30046 59.4091 9.31081 59.1859 8.98869 60.4591C8.96811 60.5207 9.16775 59.9549 8.86516 61.04C8.84357 61.1071 8.81681 61.1916 8.77159 61.3042C8.76575 61.3186 8.75945 61.3337 8.75244 61.3499C8.72415 61.4087 8.70003 61.4757 8.59669 61.6243C8.53502 61.7003 8.47712 61.8111 8.20792 61.985C8.0716 62.0665 7.85009 62.1718 7.53307 62.1729C7.21776 62.1802 6.86338 62.024 6.67391 61.8447C6.4765 61.6655 6.39562 61.5024 6.34398 61.3868C6.29207 61.2586 6.30167 61.2731 6.28597 61.2237C6.26534 61.1506 6.25537 61.0948 6.24839 61.0479C6.21328 60.7141 6.24354 60.6635 6.25637 60.5138C6.35124 59.6411 6.58532 57.9568 6.60369 57.6994C6.61049 57.5588 6.30822 58.8028 6.3922 58.9824C6.23542 60.0091 6.19879 60.3764 6.19237 60.5048C6.17025 60.7693 6.20185 60.6079 6.21486 60.5864C6.22211 60.5781 6.2221 60.5913 6.21646 60.7368C6.21568 60.7765 6.21352 60.8226 6.21849 60.9149C6.22176 60.9626 6.22509 61.0209 6.24543 61.1238C6.25675 61.1772 6.2696 61.2358 6.30563 61.3332C6.3468 61.4376 6.40619 61.5829 6.57285 61.7671C6.73052 61.9479 7.06494 62.1601 7.42587 62.1837C8.18281 62.1999 8.39511 61.8506 8.5131 61.7519C8.62823 61.6211 8.66535 61.5484 8.70102 61.4868C8.774 61.3491 8.77101 61.3414 8.78223 61.3173C8.80115 61.2712 8.81909 61.2237 8.83848 61.1693C8.88268 60.9732 8.94313 61.3197 9.5037 58.632C9.50122 58.7995 9.41647 59.2687 9.29907 59.7895C9.22588 60.1029 9.18169 60.2977 9.07767 60.6701C9.03037 60.8354 9.00646 60.9294 8.92528 61.1648C8.90804 61.2138 8.89068 61.2609 8.87084 61.3103C8.86088 61.3351 8.85027 61.3606 8.8381 61.388C8.81828 61.4312 8.78917 61.4959 8.73218 61.5891C8.64826 61.6831 8.66402 61.8311 8.13128 62.1318C7.87572 62.2828 7.20977 62.3462 6.79125 62.0494C6.37984 61.7741 6.28475 61.4824 6.22872 61.3476C6.17921 61.2086 6.16589 61.1209 6.15552 61.051C6.13792 60.9146 6.14087 60.8454 6.14183 60.783C6.14584 60.6639 6.15564 60.5873 6.16691 60.5012C6.23962 59.9303 6.30978 59.4433 6.3295 59.2599C6.38771 58.7352 6.26134 59.4957 6.13724 60.497C6.12589 60.5849 6.11597 60.6626 6.11217 60.7861C6.11147 60.851 6.10827 60.9229 6.12842 61.0688C6.14547 61.1561 6.13844 61.1965 6.22874 61.4275C6.30736 61.5998 6.47248 61.9574 6.99061 62.186C7.52208 62.4165 8.07145 62.2251 8.27415 62.0877C8.70156 61.7925 8.6998 61.6705 8.77252 61.5784C8.82235 61.4944 8.85854 61.413 8.86623 61.3957C8.87843 61.3678 8.88907 61.342 8.89905 61.3168C8.91894 61.2665 8.93633 61.2186 8.95362 61.1687C9.03581 60.9269 9.05685 60.8389 9.10467 60.6688C9.12656 60.5889 9.14928 60.5038 9.17276 60.4136C9.19023 60.3446 9.20606 60.2801 9.22309 60.21C9.25678 60.0711 9.29135 59.9238 9.32571 59.7724C9.44084 59.2543 9.54166 58.7238 9.55792 58.5431C9.55542 58.9246 9.63706 58.2406 9.82643 57.2444C10.0263 56.1689 9.9698 56.6014 10.0657 56.0459C10.3314 54.4366 10.1744 55.1 10.4165 53.7804C10.0931 55.0684 10.7321 51.4706 10.8523 50.4685C10.6775 52.1385 10.4519 53.8676 10.1843 55.5508C10.2075 55.455 10.2307 55.3581 10.2539 55.2602C10.1779 55.7261 10.1115 56.1239 10.0276 56.5923C10.0336 56.5168 10.0396 56.4405 10.0457 56.3635C9.68589 58.6752 9.47295 59.2463 9.43913 59.4208C9.40405 59.5768 9.36446 59.748 9.31847 59.9376C9.27358 60.1228 9.23602 60.2757 9.19052 60.4507C9.13204 60.6699 9.09066 60.8234 9.02945 61.0222C8.98629 61.1571 8.95107 61.2648 8.89345 61.4004C8.89685 61.3924 8.84856 61.5079 8.77908 61.6196C8.73806 61.6832 8.69191 61.7624 8.56047 61.8968C8.42727 62.0063 8.18572 62.318 7.4727 62.3208C7.13027 62.3127 6.76875 62.1398 6.56995 61.9518C6.36351 61.7632 6.27367 61.5909 6.21595 61.4661C6.1494 61.3073 6.16509 61.3336 6.14669 61.2787C6.13522 61.2398 6.12677 61.2054 6.12001 61.1745C6.09393 61.0516 6.08969 60.9776 6.08615 60.9165C6.07927 60.6906 6.09593 60.6126 6.10934 60.493C6.32393 58.6573 6.61822 56.6895 6.92211 54.9556C6.99109 54.5961 6.86864 54.8132 7.43012 52.1877C7.61707 51.3449 7.4982 52.1486 7.69023 51.1959C7.81957 49.9796 7.91865 50.0226 7.99784 49.6684C8.22894 48.6475 8.34664 48.0309 8.36897 47.9348C8.66502 46.6764 9.14545 44.8581 9.52893 43.498C9.53557 43.4723 9.29403 44.1669 9.55646 43.2877C9.64478 42.9762 10.6346 40.2558 11.4076 37.8444C11.1805 38.4631 10.9599 39.0826 10.7449 39.705C10.9642 38.9658 12.7704 33.835 12.2688 35.0652C11.9473 35.8161 11.4085 37.7392 11.2258 37.9037C11.7126 36.1643 15.5476 26.8842 16.0631 26.2389C16.1153 26.1438 15.8593 26.7638 15.9312 26.6321C15.9784 26.5282 17.0248 24.4619 17.1951 24.2035C17.2904 24.0471 16.8338 24.965 16.8885 24.9003C16.921 24.8346 18.3375 22.3127 18.3839 22.1424C18.0371 22.7699 17.0615 24.5118 17.5209 23.5693C17.578 23.4505 17.9558 22.8545 18.0311 22.7083C18.7126 21.3394 16.5045 25.325 16.2235 25.9649C17.4219 23.3752 19.7157 19.5865 21.6906 16.8423C22.535 15.773 20.5809 18.5237 21.5097 17.3065C23.4877 14.7929 21.9562 16.5727 22.0082 16.4886C22.4198 15.8041 24.3795 13.8962 24.2216 13.7573C25.0226 12.9051 24.7861 13.1893 25.9088 11.9741C25.7456 12.1179 25.5832 12.2636 25.4216 12.411C26.5492 10.9168 29.8565 8.64415 29.6572 8.88451C29.0549 9.41168 27.4257 10.6882 27.3153 10.8126C27.1413 11.0022 26.717 11.611 24.6895 13.5366C24.0031 14.4599 27.8358 10.4054 26.135 12.3017C27.1625 10.9158 33.04 6.70721 34.1113 6.36448C34.2251 6.30753 33.6023 6.37931 35.3075 5.70175C36.1229 5.39053 34.2034 6.24322 34.5862 6.12015C35.1543 5.87982 40.3805 3.52111 45.8124 4.10675C50.3377 4.37551 54.1407 7.01072 55.2023 7.96579C55.3678 8.10447 55.2667 8.09962 55.4274 8.23719C55.9465 8.64035 57.6572 10.261 58.3076 11.2125C56.9285 9.27161 59.8089 12.8949 60.262 13.9328C61.0966 15.4581 60.9123 15.4248 61.2156 16.0919C62.3985 18.6746 63.8785 22.7619 63.9983 24.9255C64.2678 24.76 64.5302 28.5853 64.6242 30.2986C64.7423 31.6414 64.9968 33.6008 65.0252 31.7701C65.1493 34.1096 65.1669 36.586 65.0003 38.7965C64.9721 39.1632 64.9307 38.6507 64.8826 39.275C64.8781 39.3315 64.9575 39.4199 64.9103 39.9545C64.4109 44.3941 64.4823 42.2026 64.3135 43.0155C64.202 43.4677 64.117 43.8145 64.0611 44.0621C64.5911 41.4949 64.7983 38.5323 64.8358 37.7409C64.6705 38.4067 64.2884 43.405 63.813 44.8812C63.7997 44.9311 63.7364 44.7304 63.7241 44.7813C63.7238 44.7824 63.7236 44.7835 63.7233 44.7845C63.6464 45.3147 62.634 48.8035 62.9614 48.1355C63.0585 47.9554 63.5924 46.3414 63.9833 44.4429C63.8933 44.9642 64.0935 44.6071 64.0784 44.6992C63.9245 45.8075 63.01 48.5122 62.5979 49.4568C62.5121 49.672 62.5899 49.6858 62.5764 49.7215C62.2195 50.5659 62.1569 50.138 61.9733 51.1261C61.0454 52.5716 63.1677 48.1698 62.8077 48.4107C62.6878 48.5183 61.8698 51.073 60.3722 53.5451C58.9742 56.052 56.4534 58.1733 56.4958 58.2321C56.4442 58.239 56.2819 58.3262 55.9535 58.5073C55.3335 59.0451 51.668 60.4635 50.939 60.424C50.8285 60.4469 50.8989 60.668 50.7572 60.6869C50.6052 60.7131 49.2026 60.8128 47.8451 60.5995C46.3901 60.3966 45.0386 59.9331 44.2362 59.6841C45.0672 60.0472 45.8297 60.3199 46.7605 60.5483C45.3147 60.2413 44.4498 59.8856 43.8229 59.6363C42.1591 58.8783 42.6593 59.1812 43.7766 59.7408C43.8688 59.7845 43.9655 59.8291 44.0657 59.874C44.1499 59.9086 44.229 59.9492 44.3095 59.9812C45.5643 60.5554 47.4095 60.9359 47.4534 60.9441C47.4805 60.9885 45.4705 60.7124 43.6962 59.9223C41.3769 59.0149 39.4756 56.9645 40.3996 57.6806C40.5164 57.7816 41.5477 58.6395 42.3297 59.065C43.1304 59.5142 43.6752 59.7453 42.6775 59.1544C42.4993 59.0437 41.7826 58.6537 41.0958 58.1324C40.3781 57.5996 39.7842 56.9797 39.7337 56.9117C39.3889 56.4395 40.4317 57.5756 41.6791 58.3164C42.848 59.0458 44.2075 59.4857 43.8746 59.2629C42.4011 58.8048 40.6853 57.6033 39.4448 56.0964C38.8753 55.403 38.6796 55.2627 38.6128 55.1728C37.7524 53.7504 38.337 54.4974 38.0798 54.0132C37.848 53.793 36.7578 50.8425 37.3008 51.3373C36.7976 49.0027 36.9534 47.7597 36.9331 47.2149C36.9454 46.6626 36.9027 46.7955 36.8404 47.3715C36.7309 48.4103 36.5709 51.7193 38.253 54.682C36.9357 52.9074 36.5458 48.9949 36.7049 47.6159C36.7317 47.078 36.5698 47.3861 36.6437 46.4688C36.5298 44.4005 39.4701 37.2067 40.5458 35.6953C40.0251 36.777 40.3129 36.5347 40.7405 35.7167C41.1653 34.9199 40.6351 35.4853 40.7013 35.3213C40.7302 35.1407 42.9913 31.5752 43.3796 31.024C41.7401 33.677 42.2291 33.1617 43.702 30.9652C43.5206 31.3087 43.3435 31.6516 43.171 31.9938C43.9608 30.6331 46.0398 28.1769 46.5497 27.4378C46.6249 27.3227 46.2257 27.632 46.2669 27.5689C46.6791 26.923 48.4567 24.9576 48.5116 24.8403C48.5533 24.7321 47.7427 25.5355 47.9731 25.1769C48.0245 25.097 48.8428 24.3844 49.5144 23.5578C49.7642 23.2503 49.5169 23.3464 49.5776 23.2668C50.0883 22.6057 49.9091 23.1042 50.9102 21.9623C51.6433 21.1363 52.0696 20.3862 53.2047 19.3425C49.4986 22.7921 52.5087 19.7792 53.975 18.2562C54.2126 18.0134 53.8354 18.0364 55.3953 16.7273C52.5363 20.0058 56.4182 16.029 57.3016 15.3103C57.3496 15.2705 57.4631 15.3723 57.8851 15.0107C57.9209 14.9801 57.8027 14.9437 58.1909 14.6012C61.9387 11.396 59.587 13.5032 60.3721 12.9907C60.6972 12.7762 62.5266 11.1864 63.0536 10.8115C63.1741 10.7239 63.181 10.8532 63.6457 10.5153C64.4727 9.91545 65.1802 9.29399 65.7406 8.91327C65.8082 8.87059 65.8971 9.01114 66.9529 8.273C67.2562 8.06317 67.5759 7.79178 67.1054 8.02404C65.5527 8.77822 63.0535 10.8621 61.4541 11.9024C59.9711 12.8319 64.359 9.51845 64.647 9.38152C64.7341 9.32066 63.8852 10.0102 64.806 9.39866C65.5898 8.87865 66.8677 7.67822 68.14 7.0021C68.2359 6.94726 69.3424 6.60786 69.3042 6.65C69.2665 6.67741 67.7972 7.60951 68.053 7.54841C68.0825 7.53807 69.0316 6.97641 69.1837 6.95731C69.3713 6.92809 70.0951 7.29463 70.3113 7.19604C70.8655 6.94106 70.4459 6.99389 70.7977 6.81615C71.5444 6.41357 74.2515 5.34796 74.271 5.10047C73.8187 5.2852 73.353 5.48455 72.9168 5.67845C75.3846 4.50634 74.297 4.91494 74.631 4.71073C74.997 4.50272 74.9673 4.73645 75.8219 4.41247C75.9822 4.3024 79.6945 3.00051 79.6436 2.97121C77.5684 3.73681 78.2903 3.26451 78.1863 3.28451C77.8166 3.38746 77.3984 3.68555 76.9136 3.8599C73.5778 5.1296 76.8315 3.6085 76.031 3.85854C75.7567 3.94306 75.2718 4.27488 75.1575 4.31631C74.7846 4.44971 74.7175 4.30255 74.4783 4.41994C73.9211 4.69631 74.6729 4.61849 74.6319 4.65008C74.1789 4.98802 72.1424 5.75577 73.265 4.95148C72.4873 5.21849 72.5493 5.5266 71.9319 5.69978C70.7103 6.05499 72.4115 5.25225 72.8546 5.0059C74.5242 4.07907 74.9852 3.96025 77.5683 2.99626C78.4817 2.66365 79.5719 2.1921 80.0381 2.06292C80.3296 1.94765 83.1401 1.89388 83.1457 1.08593C84.2949 0.969891 86.1173 1.35063 87.3372 1.33347C88.4249 1.31636 88.0946 1.02519 88.1968 1.01317C88.3436 0.990067 89.7215 1.0971 90.1981 1.12351C90.7553 1.14504 90.4964 0.986097 91.3845 1.08251C93.6143 1.39183 93.4843 1.77354 93.6981 1.83564C96.2027 2.90465 95.224 2.15257 95.8138 2.32814C96.1674 2.41341 99.3539 3.95147 101.455 5.96139C102.795 7.17003 103.714 8.43711 104.106 8.93449C103.634 8.36319 103.124 7.81365 102.56 7.2822C103.346 8.4347 104.324 9.38027 104.044 9.60017C104.732 9.53017 105.632 11.9882 105.884 12.6934C106 12.9624 106.083 12.9003 106.215 13.2336C106.793 14.564 107.382 17.4976 107.511 18.1849C107.828 19.6044 107.867 18.5455 107.633 16.8128C107.441 15.1802 106.724 12.8931 106.593 12.5989C107.393 13.9219 108.726 20.9009 108.444 17.6584C108.398 17.1318 107.944 16.2813 107.863 16.0055C107.304 14.1276 107.922 15.5584 107.906 15.4061C107.89 15.1701 107.266 13.8781 107.164 13.5427C107.12 13.425 107.632 14.0979 106.891 12.2088C107.649 13.0667 108.769 18.4658 108.768 19.0042C108.778 19.216 109.187 17.7829 109.074 22.0167C109.113 21.9674 109.152 21.918 109.191 21.8685C109.333 24.2387 109.265 26.4514 109.082 28.6017C109.009 28.3515 108.921 27.1172 108.826 28.6528C108.761 29.5421 109.041 28.9134 109.04 28.9946C109.35 29.9619 106.34 43.1259 105.26 45.3786C104.987 46.2186 104.325 48.5203 104.256 48.6927C103.888 49.752 102.295 53.2247 101.978 53.9507C101.794 54.3999 102.157 54.07 101.974 54.4516C101.804 54.8051 101.803 54.3524 101.747 54.455C101.35 55.3079 98.2162 62.1016 97.1691 63.4664C97.7584 62.5931 99.9016 57.6399 99.7012 57.6859C99.6766 57.6978 98.9719 58.7736 98.9103 59.0445C98.5674 59.3523 98.3008 60.9514 97.8158 61.6311C97.7606 61.7062 97.6926 61.246 96.9438 62.4932C96.6864 62.9202 96.2274 64.1964 95.3324 65.2157C94.5558 66.9881 88.6486 75.1569 88.423 75.8635C88.4259 75.8911 89.3461 74.7971 88.8892 75.6609C88.2774 76.8071 88.4781 75.527 87.5649 76.6869C87.4464 76.8602 84.9808 80.1915 84.9152 80.3117C84.4033 81.5142 86.7388 78.7415 86.7306 78.7988C86.7376 78.9642 84.9287 81.3898 84.8346 81.4589C84.7449 81.5326 85.9151 79.3397 84.2234 81.7398C84.4749 81.512 84.7252 81.2838 84.9742 81.0549C84.1974 82.2019 83.8717 82.1031 83.6471 82.3511C82.9447 83.1172 82.5713 84.319 81.0572 85.1828C80.6548 85.4112 81.0011 84.7421 80.9475 84.7683C80.4492 85.026 80.4255 85.916 79.5878 86.2296C79.5223 86.2517 80.5739 84.6959 78.4144 87.1176C78.5939 86.979 78.7729 86.8401 78.9513 86.7009C78.7105 87.1201 76.5605 89.5455 76.2285 89.852C75.2949 90.7444 75.8641 89.721 74.9899 90.6834C75.8513 90.3817 73.1568 93.2196 73.0626 92.8016C72.9811 93.5171 70.3596 95.6014 69.1963 96.6502C68.4664 97.3242 67.0899 98.8267 66.8411 99.0135C66.5367 99.2456 66.4261 98.9345 65.8634 99.3369C65.7093 99.4471 64.2801 100.994 62.6974 101.883C62.3904 102.058 61.499 102.104 61.9172 101.591C62.6269 100.724 64.5004 99.6876 64.2813 99.4641C64.0491 99.2345 62.0161 101.202 61.4 101.637C58.5478 103.673 59.9061 102.118 59.7718 102.092C59.4336 102.03 57.9259 103.215 57.8539 103.237C57.5315 103.352 58.4708 102.364 58.3913 102.221C58.2817 102.046 56.6165 102.846 56.9021 102.537C57.306 102.108 58.8278 101.322 58.8996 101.244C59.8618 100.226 58.0834 101.02 57.5264 101.145C57.3576 101.184 57.7832 100.703 57.6667 100.766C55.8886 101.724 57.7402 101.57 56.6492 102.318C55.6739 102.98 56.6944 101.81 56.6466 101.823C56.5905 101.843 55.4567 102.675 55.2116 102.713C55.1006 102.736 57.6361 100.035 57.3456 99.8999C56.4535 100.668 55.5765 101.408 54.6752 102.149C54.3911 101.909 55.8846 101.131 55.9975 100.995C56.229 100.727 55.3503 101.16 55.3152 101.042C55.2909 100.97 56.0377 100.083 55.1598 100.609C54.8575 100.787 54.419 101.436 53.227 101.976C56.6215 99.0742 54.0145 100.737 53.8373 100.708C53.6597 100.678 55.1822 99.1872 53.1477 100.743C52.6448 100.232 53.0632 100.529 53.5763 99.9995C54.1991 99.3483 52.4224 100.384 55.1194 98.5928C54.7773 98.4463 52.7045 100.002 52.5709 100.058C52.4605 100.109 52.8345 99.6372 52.635 99.7132C50.2795 100.611 51.812 99.8743 51 99.9483C50.9288 99.958 48.952 101.142 50.3559 100.096C52.9066 98.1786 54.2096 97.7539 54.0494 96.6346C51.9355 97.6833 49.9834 99.8322 49.3985 100.244C48.5139 100.868 49.3233 100.065 49.1801 100.093C49.1321 100.104 48.3704 100.642 48.3501 100.635C47.3644 100.381 51.7888 98.2702 52.9167 97.2429C52.5219 97.3911 52.1261 97.5374 51.7292 97.6817C52.1739 97.3562 52.6155 97.0289 53.054 96.6998C50.8056 98.0576 52.9322 96.6862 53.0844 95.803C53.1168 95.6074 51.8808 96.8152 53.2266 95.3419C52.0077 96.133 52.3124 95.7522 51.3584 96.657C51.2423 96.4414 53.4442 94.4906 54.2814 93.683C50.8407 95.9131 53.2638 95.2555 50.113 96.9214C49.7565 97.5502 51.0994 96.5276 51.0156 96.6474C50.7206 97.0832 49.6125 97.5131 48.815 98.8376C48.6873 99.0527 49.6672 98.7788 48.482 99.5677C48.3508 99.6552 47.4395 99.9301 47.4384 99.9056C47.4173 99.6576 48.2075 99.2258 48.1861 99.1293C48.1669 99.0392 47.3661 99.6391 47.3491 99.6207C47.1709 99.4105 47.9835 99.0704 47.8309 99.0691C47.4997 99.0699 44.1927 100.558 48.1711 98.1125C45.125 100.521 47.9311 98.6555 49.119 97.6849C49.4218 97.4394 49.4094 97.2507 49.8287 96.8886C50.3677 96.4226 51.0853 96.0047 51.3635 95.767C51.6605 95.5101 49.6351 96.5105 52.3056 94.7097C50.7726 95.3752 48.617 97.3811 47.1265 98.0446C44.1237 99.3772 48.6317 96.2562 49.0651 95.8614C49.1822 95.7628 48.6348 95.8758 48.7107 95.8067C48.8442 95.7001 51.4308 93.9869 51.5667 93.6535C51.705 93.3314 50.6529 94.328 50.4632 94.2304C50.3355 94.1783 53.2276 91.7773 51.5383 92.9127C50.3807 93.6952 48.5814 95.5754 47.8981 95.3704C49.5686 94.1729 51.1916 92.9533 52.8084 91.6814C51.7899 92.1896 50.7459 92.6969 49.7262 93.1665C51.5449 91.7918 53.2755 90.7826 54.7977 89.2161C50.2719 91.8809 55.8109 87.7837 55.8019 87.651C55.7935 87.6022 53.8533 88.4618 53.5285 88.5831C54.8626 87.3293 58.9752 83.7836 56.0978 85.3197C56.6342 85.0734 57.4839 83.8915 57.4478 83.8852C57.125 83.7956 54.8961 85.8572 55.1107 85.3433C55.3612 84.7553 56.2435 84.5646 56.9079 83.9671C60.2486 80.9001 58.3224 80.6355 61.7917 77.7798C61.6902 77.8034 61.5887 77.8269 61.4871 77.8503C65.1322 74.5794 68.5918 71.0964 71.8311 67.4206C72.7618 65.7089 75.7193 61.6071 77.2036 59.5987C77.5045 59.2149 79.1104 57.3084 79.24 57.1739C79.4984 56.9288 78.4402 58.5054 79.0437 57.8738C79.1892 57.7473 81.566 54.3241 81.1995 54.4452C80.9277 54.825 80.2137 56.1186 80.0384 56.279C78.8928 57.5462 85.8652 46.7713 85.8204 46.083C85.6239 46.3082 85.4326 46.5189 85.2383 46.7328C85.6352 46.06 86.0456 45.3345 86.428 44.6423ZM78.8844 88.0571C78.6916 88.6429 77.6084 89.5534 77.0853 90.212C76.3668 91.1268 75.6772 93.2271 75.5851 91.9312C76.7096 90.6548 77.818 89.3542 78.8844 88.0571ZM94.0697 68.538C93.3537 69.4447 93.4173 68.4121 94.0825 67.7306C94.1556 67.6559 95.0277 67.3089 94.0697 68.538ZM87.1331 78.2226C87.1574 78.1803 87.752 77.4053 87.7776 77.3827C88.4641 76.8059 86.6676 79.1454 87.1331 78.2226ZM108.916 24.2401C108.916 25.6469 109.337 24.6393 109.167 23.7606C109.157 23.7061 108.917 24.1484 108.916 24.2401ZM108.89 25.2401C108.513 26.341 109.071 28.5191 109.115 26.8204C109.123 26.6539 108.914 25.1841 108.89 25.2401ZM91.7071 71.8341C91.6513 71.6364 92.3615 70.7 92.6618 70.3022C92.7738 70.3942 91.9691 71.4133 91.7071 71.8341ZM105.163 45.0999C105.088 45.0305 103.663 48.928 103.676 49.2463C103.877 48.617 105.255 45.1963 105.163 45.0999ZM107.877 34.5693C107.842 34.6702 107.56 36.1462 107.66 36.1286C107.948 35.4341 108.057 34.1043 107.877 34.5693ZM106.008 10.3766C105.973 10.3331 106.003 10.7146 105.874 10.6844C105.726 10.6525 105.54 10.2295 104.623 8.52898C104.357 8.02657 105.597 9.62674 105.494 9.45732C105.312 9.07664 105.144 8.78601 104.996 8.56113C106.086 10.0721 106.772 11.6141 106.816 11.7989C106.992 12.5883 106.07 10.4047 106.008 10.3766ZM93.4262 1.08454C93.0758 1.0574 91.063 0.600117 90.6093 0.529977C90.5305 0.515124 90.914 0.314384 89.9912 0.229421C89.2532 0.178012 90.3219 0.503128 88.9025 0.361966C87.5081 0.259473 89.3873 0.170689 89.2801 0.161711C89.0815 0.106391 86.9435 0.179295 87.0075 0.057178C87.055 -0.0702705 89.3749 0.0445514 90.0001 0.119361C90.771 0.179212 89.8611 -0.116436 91.1462 0.0972233C91.9533 0.250209 91.4454 0.481841 91.6125 0.525141C91.735 0.511388 94.6253 1.06671 93.4221 1.08243C93.4235 1.08314 93.4249 1.08384 93.4262 1.08454ZM104.704 8.16705C104.793 8.27185 104.89 8.39968 104.996 8.56113C104.9 8.42758 104.803 8.29611 104.704 8.16705ZM80.9245 85.4735C81.4011 85.1108 80.3789 86.5424 79.8144 86.93C79.7129 86.8492 80.852 85.532 80.9245 85.4735ZM103.445 6.98791C101.559 4.91542 103.227 6.25008 104.704 8.16705C104.203 7.58555 104.028 7.71774 103.445 6.98791ZM98.9103 59.0445C98.9678 58.9928 99.0266 58.9721 99.0913 59.0006C98.9359 59.1345 98.8916 59.1298 98.9103 59.0445ZM100.815 55.4593C101.216 54.108 100.02 56.6636 100.154 56.7198C100.212 56.7382 100.801 55.5129 100.815 55.4593ZM108.903 22.3836C108.883 22.531 108.232 20.2554 108.768 23.574C108.801 21.7874 108.906 23.6707 108.952 23.6469C109.122 23.5473 108.856 20.6326 108.806 19.8897C108.503 19.392 108.97 21.9042 108.902 22.3798C108.902 22.3811 108.902 22.3824 108.903 22.3836ZM70.9702 4.79305C71.2425 4.4987 72.2695 4.02774 73.024 3.69054C72.7238 3.97542 71.669 4.43557 70.9702 4.79305ZM9.79291 42.4256C11.1634 37.7964 11.5517 37.2702 10.1482 41.4533C10.1204 41.5337 9.72496 42.7115 9.79291 42.4256ZM31.8798 7.06477C32.3588 6.89476 30.9583 7.77375 30.0839 8.37937C29.8827 8.51282 29.1007 8.97281 29.9109 8.33458C29.96 8.4504 31.2577 7.57876 31.8798 7.06477ZM102.243 5.96518C102.117 5.88695 101.957 5.76617 101.772 5.61889C101.02 5.01543 99.7654 3.96489 98.9758 3.46344C99.5532 3.66177 101.011 4.72951 101.833 5.5523C101.991 5.70377 102.129 5.84446 102.243 5.96518ZM15.5013 27.5964C15.7295 27.1343 15.8169 26.7887 15.7722 26.8655C15.5711 27.2093 15.2111 28.1083 15.5013 27.5964ZM106.426 12.1802C106.4 12.2812 105.034 9.77454 105.065 9.43417C105.451 10.0206 106.479 12.0693 106.426 12.1802ZM72.3176 4.19686C72.6368 4.0922 71.1208 4.93447 70.6363 5.14591C70.6266 5.03064 72.1055 4.25684 72.3176 4.19686ZM19.4651 20.2898C19.7166 19.8958 20.351 18.9303 20.4017 18.7996C20.4503 18.6435 19.5309 20.0784 19.4651 20.2898ZM8.63356 20.0102C8.62319 19.9534 9.15542 21.6174 9.34197 22.3722C9.71909 23.7976 8.68353 20.0586 8.63356 20.0102ZM13.5671 32.0395C12.9591 33.3487 13.6244 31.8914 13.5374 31.9214C13.1564 32.8169 12.286 35.0648 12.9496 33.5455C13.0795 33.2492 13.3881 32.4579 13.5671 32.0395ZM14.1063 30.8223C14.1455 30.6704 14.4947 29.6871 14.1406 30.513C13.9777 30.8956 13.7892 31.5455 14.1063 30.8223ZM10.8825 30.5842C11.0517 31.8494 10.2345 26.0509 10.1386 25.8986C10.1229 25.8111 10.1129 25.7538 10.1076 25.7211C10.0631 25.5107 9.83063 24.4292 9.81168 24.303C9.88606 24.6254 10.0741 25.5118 10.092 25.6152C10.1003 25.6597 10.1064 25.693 10.1104 25.7159C10.2366 26.0896 10.8912 30.3326 10.8825 30.5842ZM11.3979 40.2665C11.3614 38.7954 11.4117 38.5458 11.4177 38.6696C11.4621 40.2602 11.4022 39.2229 11.4013 39.2695C11.4002 39.3835 11.4225 40.5174 11.3979 40.2619C11.3979 40.2634 11.3979 40.265 11.3979 40.2665ZM11.0843 32.5615C11.0805 32.4998 10.9582 31.2805 10.9509 31.2311C10.8656 30.2292 11.2111 33.6846 11.0843 32.5615ZM83.0077 1.0489C81.9053 1.19613 82.9509 0.819531 83.6966 0.779933C83.7583 0.779963 83.9801 0.936581 83.0077 1.0489ZM14.3749 30.1651C14.4312 29.9626 16.7648 25.2115 16.5689 25.4663C16.3222 25.8451 13.7667 31.301 14.3749 30.1651ZM43.523 3.62505C42.4576 3.66305 43.6233 3.48918 44.1776 3.54259C44.3844 3.56027 43.7863 3.61654 43.523 3.62505ZM107.365 15.7305C107.809 16.9306 107.262 16.7733 107.167 15.6825C107.163 15.6395 107.347 15.6836 107.365 15.7305ZM35.3637 5.34688C38.7305 4.06517 37.8997 4.4682 33.7136 6.31248C33.8338 6.2322 33.9548 6.15287 34.0765 6.0745C29.4716 8.61245 33.6841 6.13633 34.9026 5.63188C35.3524 5.42323 34.9482 5.53572 35.3603 5.34784C35.3614 5.34752 35.3626 5.3472 35.3637 5.34688ZM49.182 4.3031C51.8169 5.44416 48.5222 4.0031 45.8403 3.8316C45.0782 3.7619 44.394 3.74589 43.9608 3.7558C44.6027 3.71319 45.3239 3.7234 45.8488 3.74859C46.6935 3.80024 47.042 3.82152 45.8584 3.65384C45.6223 3.62468 45.3227 3.59236 44.9518 3.56438C45.2857 3.57632 45.5885 3.59501 45.8622 3.61679C49.6941 4.12162 47.8365 4.0303 48.0356 4.03373C48.2572 4.08572 49.0343 4.24332 49.182 4.3031ZM39.8542 4.03527C39.6563 4.06931 38.1657 4.36767 37.6509 4.55079C38.3438 4.19229 41.1653 3.72869 39.8542 4.03527ZM10.8373 50.426C10.8212 50.3177 10.8396 50.014 10.9475 48.9948C10.9305 49.3158 10.8755 49.9769 10.8373 50.426ZM77.3935 88.0972C76.8738 88.645 75.7788 89.694 76.2515 89.5073C76.3023 89.4839 77.482 88.1831 77.3935 88.0972ZM22.0419 16.7337C22.107 16.5867 24.7424 13.3766 23.7808 14.441C23.4486 14.7464 21.1936 17.7551 22.0419 16.7337ZM12.3385 35.2777C12.4535 34.9635 12.9371 33.6855 12.9389 33.6549C12.9334 33.5523 12.3517 35.1264 12.3385 35.2777ZM74.6109 90.7393C74.5319 90.7966 72.937 92.4681 73.1828 92.3597C73.6612 92.1555 74.9019 90.5475 74.6109 90.7393ZM79.292 2.26122C79.0764 2.32891 78.765 2.25409 78.6933 2.27443C78.5178 2.27768 74.8384 3.70315 76.1823 2.98268C76.359 2.77381 81.8962 1.19907 82.7504 1.20461C83.0578 1.36132 80.564 1.64586 79.9845 1.85324C79.8818 1.88605 79.8596 2.0815 79.2935 2.2598C79.293 2.26027 79.2925 2.26074 79.292 2.26122ZM11.2563 44.9711C11.2615 44.8241 11.3763 40.8405 11.3803 40.8979C11.3683 42.2589 11.327 43.6062 11.2563 44.9711ZM11.1225 46.9844C11.042 47.8304 11.1881 45.833 11.2221 45.262C11.2415 45.2465 11.137 46.8674 11.1225 46.9844ZM15.4458 28.3331C15.6061 27.9623 15.0167 29.0548 15.122 28.7975C15.1885 28.6302 15.5942 27.8304 15.7026 27.557C15.7304 27.4804 15.2732 28.2821 15.1652 28.5254C15.0095 28.8706 15.2107 28.5605 15.0381 28.9357C14.4649 30.1866 13.9536 31.281 13.4667 32.4724C13.4227 32.5798 13.7963 31.7624 13.4214 32.6763C13.3642 32.8172 12.9696 33.6445 12.5572 34.7524C11.7864 37.2464 11.0099 38.9959 10.1059 42.1654C10.1479 42.0484 10.92 39.7116 10.9738 39.5747C11.8301 36.9596 13.5935 32.3362 14.8126 29.6992C15.1205 29.0195 14.9387 29.3341 15.071 29.0413C15.1767 28.8107 15.1085 29.1123 15.4458 28.3331ZM77.5578 87.6991C77.1235 87.7802 76.388 88.825 75.8179 89.4056C76.1884 89.3682 76.9862 88.2393 77.5578 87.6991ZM6.64962 57.3178C6.70408 56.9351 6.91486 55.7388 6.91802 55.6452C6.91945 55.509 6.62756 57.233 6.64962 57.3178ZM60.8938 12.1956C60.8645 12.2229 60.0858 12.8267 60.054 12.8468C59.2733 13.2806 61.6188 11.464 60.8938 12.1956ZM44.5529 29.0425C44.1339 29.6583 43.7442 30.3142 43.4889 30.4534C43.786 30.0472 44.5256 28.917 44.5529 29.0425ZM47.9384 60.9708C47.7008 60.8685 50.9191 61.0416 51.5358 60.821C51.3382 61.0399 48.0222 61.1921 47.9384 60.9708ZM10.7046 50.5635C10.8519 49.246 10.7621 49.5419 10.8679 48.7213C10.884 48.584 11.0398 48.1782 10.8599 49.575C10.8237 49.8344 10.9094 48.8083 10.7046 50.5635ZM33.056 6.66348C32.7677 6.88893 31.7828 7.45223 31.1511 7.87907C31.259 7.74066 32.5785 6.91963 33.056 6.66348ZM71.5087 93.5411C70.8639 93.8023 68.8734 95.9563 69.5191 95.5941C69.6176 95.5397 71.1985 93.8354 71.5087 93.5411ZM97.8759 3.54782C96.3231 2.86792 99.3434 4.5831 100.251 5.19795C99.8712 4.86859 98.0125 3.57847 97.8759 3.54782ZM38.5471 55.5417C38.5694 55.6522 39.8634 57.2306 39.9535 57.2622C40.5194 57.8712 39.7252 57.2204 39.1025 56.443C38.4527 55.6418 38.0017 54.7613 38.5471 55.5417ZM49.5634 23.1356C49.3263 23.5471 47.2824 25.8293 46.7821 26.3122C47.0536 25.6702 49.8343 22.5954 49.5634 23.1356ZM9.97496 55.8636C10.1326 54.9315 10.2677 54.0958 10.4013 53.2232C10.4011 53.4226 10.0147 55.7721 9.97496 55.8636ZM44.0657 59.874C44.1499 59.9086 44.229 59.9492 44.3095 59.9812C44.2263 59.9456 44.145 59.9095 44.0657 59.874ZM9.17231 45.7041C9.38524 44.9548 9.29279 45.0954 9.27817 45.1415C9.10727 45.7039 8.93509 46.5517 9.17231 45.7041ZM76.6465 88.1078C76.2847 88.1475 75.4833 89.2743 74.8924 89.8047C75.1881 89.7744 76.2376 88.5892 76.6465 88.1078ZM52.751 6.00019C53.746 6.59206 49.469 4.55428 48.4358 4.43863C48.406 4.40154 49.5067 4.61905 50.5676 5.00906C51.6472 5.38995 52.6824 5.95167 52.751 6.00019ZM101.912 6.96902C101.939 7.12915 103.721 9.04871 103.421 8.57996C103.29 8.27746 101.939 6.83079 101.912 6.96902ZM46.1181 4.00271C46.0362 3.99822 45.9347 3.98946 45.8254 3.97892C45.3607 3.93203 44.7569 3.85944 45.0433 3.83882C45.2846 3.82214 45.6045 3.86781 45.8316 3.91715C46.0395 3.96083 46.1719 4.00562 46.1181 4.00271ZM18.1369 23.2175C18.2197 23.0695 19.3132 21.1209 18.7985 21.8866C18.4415 22.4189 18.4543 22.5476 18.3786 22.6781C18.278 22.8239 16.4796 25.9119 18.1369 23.2175ZM64.6568 26.9047C64.4891 26.0347 64.33 24.9882 64.1239 24.076C64.2685 24.4377 64.6772 26.5212 64.6568 26.9047ZM94.0153 2.20315C94.1446 2.26068 96.0366 2.93737 97.3054 3.64463C98.5718 4.34939 99.3267 4.773 97.4221 3.55755C97.2362 3.30869 93.2596 1.70748 94.0153 2.20315ZM10.7046 50.5635C10.6858 50.7268 10.6631 50.9138 10.6353 51.1277C10.6615 50.9151 10.6847 50.7278 10.7046 50.5635ZM6.80885 56.8123C6.78295 57.1127 7.03308 55.6185 7.10016 55.1832C7.09205 55.0424 6.80962 56.7648 6.80885 56.8123ZM64.0287 24.0233C63.8809 23.505 63.6882 22.5714 63.5021 21.9223C63.595 22.022 64.042 23.783 64.0287 24.0233ZM53.7518 59.8644C55.1664 59.3681 56.5528 58.313 56.5151 58.2334C56.5455 58.2263 56.6071 58.1969 56.7034 58.1395C56.8217 58.0853 57.8907 57.1228 58.3095 56.6927C59.5552 55.3596 57.4732 58.2088 54.666 59.5234C53.3128 60.1979 52.0014 60.4415 51.8187 60.4425C51.5991 60.3926 52.6699 60.4155 55.1372 59.0308C54.701 59.3353 54.2389 59.6152 53.7518 59.8644ZM52.5472 20.2697C53.0446 19.9289 54.1088 18.6628 53.772 18.9274C53.5334 19.1057 52.0453 20.6041 52.5472 20.2697ZM39.2852 39.0068C39.3796 38.8192 40.0283 37.2648 40.0015 37.2029C39.519 38.0076 38.8508 39.7722 39.2852 39.0068ZM55.8945 17.2167C56.1784 16.9801 56.396 16.5111 56.3582 16.5336C56.029 16.7307 55.3636 17.5556 55.8945 17.2167ZM10.2557 53.2025C10.1693 53.7461 9.94116 55.3841 9.90291 55.759C9.8859 55.8245 9.8488 55.9997 9.78351 56.3164C9.7837 56.3154 9.7839 56.3143 9.78409 56.3132C9.75787 56.4381 9.63734 57.1234 9.42834 58.1337C9.33367 58.5943 9.20474 59.186 9.07381 59.7322C8.99393 60.0586 8.94622 60.2593 8.84688 60.6146C8.80225 60.7708 8.77701 60.8688 8.70212 61.0873C8.68619 61.133 8.67032 61.1765 8.65256 61.2213C8.64364 61.2437 8.63422 61.2666 8.62357 61.2909C8.60573 61.33 8.58046 61.3858 8.5328 61.4641C8.46406 61.5434 8.47231 61.663 8.04941 61.9101C7.84743 62.0322 7.3167 62.1075 6.95211 61.8721C6.59468 61.6499 6.50767 61.4059 6.45328 61.2772C6.40847 61.1541 6.39833 61.0839 6.38889 61.0236C6.37339 60.9076 6.37561 60.8475 6.37627 60.7926C6.37938 60.6876 6.38802 60.6161 6.39858 60.5339C6.75258 57.7958 7.02162 55.8405 6.3545 60.5277C6.34164 60.6353 6.32756 60.7093 6.33161 60.8926C6.33388 60.9419 6.33683 61.0008 6.3549 61.096C6.36442 61.144 6.37775 61.2017 6.40484 61.2777C6.4542 61.3928 6.58662 61.8224 7.19018 62.0257C7.47678 62.115 7.77506 62.0717 7.9564 62.0004C8.14361 61.9286 8.2486 61.8455 8.32377 61.7819C8.46885 61.6522 8.51316 61.5757 8.55444 61.5159C8.62446 61.4078 8.66323 61.3143 8.66868 61.303C8.79091 60.9697 8.68271 61.3035 8.99642 60.1432C9.01525 60.0693 9.0457 60.0455 9.10705 59.7971C9.25761 59.2682 9.83718 56.3979 9.90223 55.8296C9.90697 55.8255 9.91692 55.79 9.93362 55.7124C10.0961 54.9857 10.3245 52.8022 10.2557 53.2025ZM38.0595 42.2622C38.1901 41.935 38.5613 40.8139 38.5263 40.704C38.2795 41.2021 37.7329 43.0424 38.0595 42.2622ZM94.1098 2.66135C94.9205 2.97496 97.008 3.79598 96.4325 3.43674C96.0923 3.14645 93.1808 2.23572 94.1098 2.66135ZM42.7756 32.511C40.6512 35.7895 42.2906 33.3059 42.075 33.8767C42.3019 33.4194 42.549 32.9439 42.7756 32.511ZM11.2351 36.5582C11.2506 37.1282 11.1951 36.4603 11.1851 35.8284C11.1819 35.6301 11.2261 36.2392 11.2351 36.5582ZM4.91176 11.6673C5.16327 12.0858 3.91701 10.0512 4.41062 10.8392C4.43603 10.8739 4.8967 11.6355 4.91176 11.6673ZM10.5259 28.7739C10.5962 29.1582 10.6396 29.4066 10.7676 30.5017C10.56 28.8847 10.7418 30.382 10.5259 28.7739ZM56.4958 58.2321C56.5057 58.2306 56.5137 58.229 56.5151 58.2334C56.5047 58.2358 56.4988 58.2351 56.4958 58.2321ZM58.5399 14.8239C58.9833 14.6126 60.009 13.7597 59.6212 13.9094C59.583 13.9224 58.6276 14.6217 58.5399 14.8239ZM9.90291 55.759C9.91786 55.7011 9.91593 55.732 9.90223 55.8296C9.89778 55.8334 9.89859 55.8078 9.90291 55.759ZM53.3644 19.7367C53.3304 19.6309 51.8872 21.0565 51.8445 21.1257C51.1613 22.0784 52.7692 20.3274 53.3644 19.7367ZM105.905 15.3935C105.955 15.5206 106.003 14.6096 105.717 14.1454C105.501 13.7899 105.735 14.9247 105.905 15.3935ZM9.87607 25.0989C9.75395 24.5012 9.56092 23.6663 9.53283 23.5104C9.63014 23.907 9.88898 25.1088 9.87607 25.0989ZM5.37009 12.482C5.72912 13.1046 6.47075 14.569 6.88544 15.5336C6.90283 15.5462 5.72429 13.0575 5.37009 12.482ZM10.49 51.5606C10.4834 51.6236 10.268 53.1411 10.3204 52.933C10.3992 52.6553 10.559 51.1245 10.49 51.5606ZM104.602 11.5677C104.076 10.7472 104.825 12.8777 105.333 13.6785C105.65 14.1176 104.736 11.704 104.602 11.5677ZM61.8948 12.3434C62.6145 11.7031 60.6499 13.0453 60.4806 13.3575C60.8278 13.0916 61.6366 12.57 61.8948 12.3434ZM40.7627 36.6184C42.5286 34.0612 41.2015 35.2451 40.9863 35.7383C40.9518 35.813 40.7183 36.6835 40.7627 36.6184ZM65.3342 97.7044C65.0711 98.0424 66.4297 97.229 66.4547 96.95C66.471 96.7782 65.5043 97.49 65.3342 97.7044ZM64.0611 44.0621C64.0355 44.1905 64.0096 44.3175 63.9833 44.4429C63.9993 44.348 64.0244 44.2241 64.0611 44.0621ZM69.4127 7.9302C67.2949 8.53863 67.7005 8.81425 67.5404 8.90304C67.1877 9.11394 66.3411 9.47999 65.7248 9.92139C66.4128 9.39014 67.0929 8.88142 67.8193 8.36524C67.1594 8.64091 62.1854 11.8555 62.1711 12.043C62.0993 12.2443 63.5689 11.1109 63.6214 11.0934C63.6935 11.0604 64.1217 11.175 64.2681 11.088C64.4892 10.9064 68.6428 8.2114 69.4127 7.9302ZM44.0192 31.1231C43.7144 31.5073 43.5395 31.5544 43.4382 31.7595C43.404 31.8294 43.4914 31.9049 43.3727 32.1406C43.5835 31.8015 43.7991 31.4624 44.0192 31.1231ZM72.6201 5.66727C73.2396 5.53672 70.7435 6.72231 70.6593 6.76679C70.1856 6.89106 72.1077 5.75315 72.6201 5.66727ZM54.1543 19.1088C54.225 19.0434 55.7375 17.6692 55.6735 17.6213C55.2248 17.9352 53.2574 19.8314 54.1543 19.1088ZM43.2037 32.4154C42.8081 32.9936 41.9677 34.1604 42.2016 34.1077C42.2022 34.1068 42.2028 34.1058 42.2033 34.1049C42.5296 33.5318 42.8725 32.9555 43.2037 32.4154ZM102.405 8.94495C103.179 10.6322 103.121 9.67336 102.136 8.28413C101.676 7.99002 102.273 8.66973 102.405 8.94495ZM104.843 14.0069C105.067 14.4734 106.112 18.8642 106.125 18.1756C106.18 17.892 105.434 15.4235 105.369 15.2738C105.329 15.0853 105.798 15.8664 105.317 14.4756C105.278 14.5749 104.812 13.85 104.843 14.0069ZM103.089 10.3124C103.782 11.9771 104.333 12.0753 103.728 10.9315C103.466 10.4631 102.981 10.0738 103.089 10.3124ZM97.956 5.19699C98.4104 5.52585 99.5281 6.39226 100.435 7.06637C100.521 7.12998 100.606 7.19176 100.688 7.25087C100.613 7.17942 100.537 7.10873 100.461 7.03878C99.388 6.05857 98.2708 5.24288 97.0018 4.52613C96.7996 4.51884 97.5302 4.87136 97.9594 5.19918C97.9583 5.19845 97.9571 5.19772 97.956 5.19699ZM1.00668 6.35243C1.67246 7.09077 0.133271 5.39381 0.0479446 5.33672C-0.153517 5.12953 0.715848 6.01739 1.00668 6.35243ZM55.3555 98.0407C55.0873 98.1485 54.7855 98.0632 54.3786 98.5312C54.9768 98.316 55.591 98.0826 56.1935 97.8518C56.3195 97.222 55.6512 97.9227 55.3555 98.0407ZM52.5529 98.19C52.6159 98.1308 51.8527 97.8788 53.005 97.5777C53.7935 97.3734 50.6447 100.012 49.8482 100.187C50.4506 99.6091 52.0054 98.6959 52.5529 98.19ZM45.0666 99.8401C45.0003 99.8215 46.2377 98.9277 46.4035 98.8607C47.2871 98.5154 45.4384 99.9461 45.0666 99.8401ZM49.1852 97.2477C48.5212 97.5515 49.7819 96.58 50.2076 96.366C50.3177 96.4392 49.2887 97.2006 49.1852 97.2477ZM6.22622 14.9013C6.52403 15.6322 6.81501 16.2746 6.3455 15.1555C6.32279 15.1022 6.21356 14.8701 6.22622 14.9013ZM45.9461 98.4709C46.6129 98.1887 45.3408 99.1214 44.9005 99.312C44.7971 99.2324 45.8465 98.5153 45.9461 98.4709ZM6.41237 15.4257C6.7949 16.3991 6.68683 16.0455 6.64113 15.9229C6.45818 15.4161 5.69647 13.7303 5.51997 13.397C6.68541 15.9046 6.21473 14.9745 6.41237 15.4257ZM8.01384 19.9752C8.28929 20.9068 7.60577 18.5194 7.42652 18.0806C7.58507 18.5359 7.94011 19.7088 8.01384 19.9752ZM9.28241 25.7235C9.37185 26.238 9.58325 27.7733 9.62224 28.0318C9.55445 27.4643 9.33356 25.9389 9.28241 25.7235ZM9.4333 26.8947C9.53232 27.7029 9.6003 27.8913 9.45811 26.9623C9.45245 26.9263 9.4298 26.865 9.4333 26.8947ZM9.90493 31.4503C9.92283 31.9831 10.009 32.587 9.95398 31.7248C9.93645 31.4689 9.90302 31.3938 9.90493 31.4503ZM6.85367 16.6586C7.11375 17.3786 7.4553 18.3048 6.90738 16.7637C7.10837 17.3016 7.29878 17.8445 7.47819 18.3891C6.80698 16.3551 6.80435 16.5226 6.59107 15.9467C6.27496 15.1485 6.30871 15.2064 6.38124 15.3636C6.12439 14.7066 4.86594 11.9833 3.93907 10.5154C4.73966 11.812 5.83023 14.0323 6.37982 15.4298C6.54126 15.8266 6.69604 16.2117 6.82365 16.554C7.0263 17.1033 6.83902 16.6182 6.85262 16.6558C6.85297 16.6567 6.85332 16.6577 6.85367 16.6586ZM10.0905 37.4663C10.0426 39.0369 10.12 38.0475 10.113 37.1545C10.1124 37.1163 10.0917 37.4272 10.0905 37.4663ZM43.1329 97.88C44.9952 97.0236 43.9836 98.144 47.1936 95.3431C45.9325 96.6616 47.2707 95.631 47.0714 95.9546C46.9085 96.216 45.9844 96.7054 46.6308 96.5782C45.8237 96.8019 42.9286 98.7344 42.7622 98.7727C42.7635 98.772 42.7647 98.7712 42.766 98.7704C42.6718 98.7969 42.5351 98.1487 43.1329 97.88ZM9.18488 25.7485C9.21965 26.2738 9.33066 26.4629 9.42728 27.4888C9.68958 28.8349 8.88098 23.7441 8.73065 23.1351C9.81653 28.6302 8.01419 19.5029 8.75304 23.3444C8.07094 20.196 8.51521 22.3163 8.39971 21.833C8.27861 21.3151 7.80452 19.5568 7.81157 19.6508C7.81185 19.6517 7.81213 19.6527 7.81241 19.6537C8.12241 20.7241 8.39332 21.8043 8.62963 22.8929C8.42754 21.8201 8.91084 24.0464 9.00354 24.8138C9.06628 25.1247 9.12675 25.4366 9.18488 25.7485ZM7.83732 19.5909C7.88275 19.6931 8.49959 22.037 8.45727 21.8866C8.41536 21.5628 7.45886 18.2557 7.83732 19.5909ZM3.52473 9.85641C3.99825 10.5903 4.65475 11.7681 4.87619 12.1886C4.47566 11.4132 3.78723 10.2531 3.52473 9.85641ZM8.48428 53.4301C8.31542 54.5287 8.91446 51.1699 8.71465 52.1377C8.70624 52.1905 8.49744 53.3608 8.48428 53.4301ZM9.54191 28.2449C9.65314 29.3665 9.64813 28.8311 9.53396 28.0029C9.52735 27.955 9.53665 28.1931 9.54191 28.2449ZM44.4691 96.9213C44.4323 96.7261 46.9402 95.2415 47.376 94.9322C47.2296 95.2571 44.5283 97.1545 44.4691 96.9213ZM2.66579 8.58345C3.67362 10.0005 4.80564 12.0679 4.9166 12.3005C5.03443 12.5284 4.84323 12.1743 4.86995 12.2264C4.95459 12.3339 6.11721 14.8048 6.14702 14.9364C6.18442 15.0233 6.00274 14.5632 6.22618 15.0809C5.88351 14.0266 3.48425 9.63876 3.26508 9.46521C3.15004 9.30054 3.9933 10.5594 2.66752 8.58593C2.66694 8.5851 2.66636 8.58427 2.66579 8.58345ZM5.20719 12.8762C4.90888 12.2621 5.75695 13.9783 5.92943 14.4085C6.34507 15.3494 5.26613 12.9459 5.20719 12.8762ZM6.99404 17.1125C7.07756 17.3157 7.68248 19.1891 7.72754 19.3508C7.48454 18.4497 6.83302 16.6438 6.99404 17.1125ZM9.94894 38.6941C9.94184 39.1975 9.86828 40.6167 9.87866 40.6916C9.90462 40.1877 9.96522 38.7661 9.94894 38.6941ZM51.7904 90.0481C51.0548 90.4212 52.5248 89.2554 52.9956 88.9754C53.0907 89.0454 51.8553 90.0175 51.7904 90.0481ZM9.45818 28.4485C9.55615 28.7416 9.94665 34.894 9.89102 35.7685C9.96415 34.9126 9.58521 28.8121 9.48434 28.545C9.47418 28.4647 9.45441 28.4101 9.45818 28.4485ZM6.34651 15.511C6.12827 14.9879 5.98853 14.6455 5.96044 14.5797C5.69162 13.9323 5.05242 12.6263 5.19617 12.9107C5.76699 14.0105 6.779 16.5529 6.34651 15.511ZM9.8306 39.1282C9.76609 41.2312 9.92332 37.2058 9.87498 37.7339C9.87486 37.7698 9.83924 38.9139 9.8306 39.1282ZM9.37319 27.7643C9.38387 27.2965 8.2924 21.2191 7.93334 20.2844C8.17909 21.1368 8.34157 21.8348 8.59056 23.0007C8.65679 23.3154 8.64673 23.2297 8.65386 23.2635C8.76512 23.8094 8.67336 23.4027 8.7401 23.7396C8.8261 23.9449 9.50016 28.4016 9.37319 27.7643ZM6.21996 15.2133C6.13157 14.8743 4.44933 11.3988 4.32794 11.2853C3.81407 10.2421 6.19334 14.896 6.21996 15.2133ZM9.41813 28.3297C9.33421 27.6698 8.90197 24.6408 9.21858 26.7114C9.24865 26.9087 9.34853 27.7517 9.41813 28.3297ZM9.79949 38.9055C9.80202 39.008 9.69178 41.1948 9.69706 41.2255C9.73537 40.9244 9.85359 37.7342 9.79949 38.9055ZM9.78649 37.7791C9.78516 37.8313 9.82172 37.3214 9.79476 38.3422C9.79056 38.4312 9.76689 38.5718 9.72239 39.8714C9.71306 40.1332 9.71161 40.5362 9.71425 40.5071C9.85085 39.1603 9.80744 35.1314 9.78649 37.7791ZM6.18635 15.1508C6.2614 15.345 6.06312 14.8843 5.88769 14.4674C5.8117 14.289 5.96567 14.6163 6.18635 15.1508ZM9.29476 45.8031C9.41555 44.5365 8.95159 48.4956 8.90974 48.699C8.95364 48.5717 9.29138 45.9429 9.29476 45.8031ZM52.2248 87.5619C52.224 87.5625 52.2233 87.5631 52.2225 87.5636C53.0549 86.992 52.6756 87.5141 52.716 87.4909C54.6014 86.3773 53.8756 86.4017 54.1109 86.1572C54.6072 85.6282 54.8449 86.0895 55.6523 85.1665C54.2908 86.6626 55.6297 85.4177 55.7897 85.5175C56.4438 85.9385 53.4794 86.9349 52.7677 87.6603C52.6697 87.7637 53.6425 87.311 53.3989 87.584C52.6065 88.4861 49.0212 89.7179 52.2248 87.5619ZM5.74661 14.1484C5.58886 13.6755 3.82095 10.347 4.29085 11.2285C4.41655 11.3455 6.07986 14.7981 5.74661 14.1484ZM51.9296 51.5914C52.1163 51.3945 51.9387 51.4716 51.7115 51.5886C51.4831 51.7081 51.2137 51.8361 51.1447 51.9066C51.0722 51.9906 51.757 51.7856 51.9296 51.5914ZM46.3525 50.1831C46.2501 49.9535 45.7613 49.5103 45.9273 50.0448C45.948 50.1129 46.3128 50.2498 46.3525 50.1831ZM46.1482 9.94823C46.9756 10.2441 46.9641 10.0644 46.341 9.90898C46.1174 9.85895 46.1214 9.93974 46.1482 9.94823ZM56.6376 42.6257C56.6078 42.7289 56.3128 43.821 56.3713 43.8035C56.534 43.4109 56.856 42.0089 56.6376 42.6257ZM45.868 9.91751C46.2873 9.97722 45.8143 9.7753 45.24 9.73413C45.096 9.72345 44.9495 9.72144 44.8138 9.73179C44.9291 9.7403 45.0807 9.76037 45.2348 9.78577C45.5366 9.83553 45.832 9.9127 45.868 9.91751ZM9.55206 30.6417C9.61247 31.1933 9.69752 32.7639 9.72371 33.6656C9.71257 33.7653 9.61621 31.2823 9.55206 30.6417ZM47.1269 51.3117C46.8153 51.197 47.1072 51.4743 47.3882 51.5867C47.5173 51.6407 47.6067 51.6579 47.5869 51.6073C47.5818 51.6022 47.5131 51.5626 47.4225 51.5092C47.2869 51.4261 47.1374 51.3154 47.1269 51.3117ZM20.6744 27.44C20.9982 26.7932 19.8098 28.7574 20.1865 28.2434C20.2034 28.2167 20.6543 27.4766 20.6744 27.44ZM16.1485 36.4263C16.3727 35.9182 17.3467 33.7741 16.9327 34.5935C16.8647 34.7179 16.1302 36.3741 16.1485 36.4263ZM54.0309 85.9674C53.628 85.9262 54.9629 84.9536 55.1753 84.8416C55.2624 84.7984 54.5608 86.0207 54.0309 85.9674ZM51.1136 12.5424C51.47 12.8241 52.2886 13.7465 52.4571 13.8823C52.0955 13.427 51.0746 12.3437 51.1136 12.5424ZM49.4921 52.0973C49.1323 51.9338 48.363 51.7162 48.498 51.9707C48.9534 52.0908 48.9143 52.0192 48.9326 51.9966C48.9449 51.9633 48.9981 51.989 49.4921 52.0973ZM42.7531 9.79619C43.1423 9.79452 43.4435 9.67242 43.399 9.66499C42.9657 9.59764 42.3617 9.75871 42.7531 9.79619ZM57.7805 31.7333C57.7157 31.7618 57.7502 33.1377 57.7939 32.9532C57.8139 32.8933 57.8409 31.7108 57.7805 31.7333ZM8.59689 50.0545C8.47338 50.7248 8.77583 48.6721 8.87419 48.0592C8.94791 47.7769 8.62116 49.9522 8.59689 50.0545ZM32.3925 13.5946C32.3732 13.6765 34.1076 12.4687 33.3792 12.8771C33.194 12.9733 32.3906 13.5604 32.3925 13.5946ZM19.2954 30.1766C19.9204 28.7714 16.9748 34.5084 17.8149 33.0308C17.8617 32.9186 19.2284 30.2872 19.2954 30.1766ZM14.8739 39.7574C14.979 39.512 15.091 39.6943 14.631 40.6992C14.5708 40.8313 14.7706 40.1844 14.7183 40.2912C14.6818 40.3499 13.8188 42.5944 13.7919 42.7009C13.756 42.8141 13.8546 42.6995 13.8196 42.8147C13.7791 42.941 13.2405 44.3276 12.9985 45.0604C12.5377 46.4469 12.5377 46.6134 12.5002 46.7264C12.3944 47.0603 12.1919 47.6039 11.9863 48.288C10.9292 51.7014 9.6986 57.0208 9.15473 59.8024C9.63057 57.3321 10.1227 54.9689 10.7328 52.5434C10.6192 53.2641 11.6246 48.9706 11.0425 51.4874C11.2138 50.2944 14.4215 40.5179 14.8728 39.7601C14.8732 39.7592 14.8736 39.7583 14.8739 39.7574ZM46.3715 48.3739C46.4374 48.809 46.7774 46.7014 46.7448 46.3699C46.5767 46.7314 46.323 48.361 46.3715 48.3739ZM50.2274 51.4453C50.337 51.3847 50.2845 51.1822 50.9182 51.034C50.9187 51.0337 50.9192 51.0335 50.9198 51.0332C51.1149 50.9742 50.9518 51.1377 50.9958 51.1407C51.001 51.1615 51.6821 50.8927 51.195 51.2213C50.4855 51.62 51.0168 51.0972 50.6536 51.2549C50.6089 51.2937 50.0381 51.5705 50.0724 51.584C50.0779 51.5889 50.2621 51.5293 50.2971 51.5339C50.4324 51.5566 50.4012 51.6508 50.4195 51.651C50.4519 51.6478 50.7162 51.5527 51.0338 51.3682C51.3393 51.1995 51.7194 50.9031 51.85 50.8742C51.9008 50.8597 51.3799 51.3385 50.9099 51.5597C50.4396 51.8008 49.9874 51.8394 49.9437 51.8314C49.8971 51.8203 49.8872 51.58 49.8424 51.5575C49.843 51.5665 49.0854 51.5862 48.9446 51.5078C48.912 51.4932 48.8871 51.4797 48.8688 51.469C49.0027 51.5958 48.1303 51.3121 48.1734 51.2193C48.2128 51.2069 48.7915 51.4276 48.8133 51.43C48.8219 51.4349 48.8291 51.4404 48.836 51.4447C48.7923 51.3854 49.2369 51.4868 49.5597 51.4776C49.8832 51.4757 50.1168 51.4034 49.9673 51.3524C50.3258 51.2375 49.9525 51.559 50.2274 51.4453ZM52.3849 49.839C52.3511 49.9137 52.3172 49.9868 52.2832 50.0585C53.1552 49.0659 54.2649 47.4465 55.0168 45.5141C55.209 45.0169 54.8591 45.5333 55.1362 44.9069C55.356 44.4046 55.6752 43.8314 55.6078 44.1368C55.5926 44.222 55.1433 45.2575 54.9275 45.7892C54.3111 47.2956 54.5685 46.9502 54.5379 47.0436C54.4947 47.1534 53.9673 47.9909 53.6941 48.4275C53.0238 49.4896 52.7177 50.0737 51.6487 50.8316C52.1527 50.2946 51.7182 50.4601 52.3849 49.839ZM25.966 20.1352C25.9455 20.2265 25.0895 21.2405 24.801 21.6447C24.8106 21.5511 25.6578 20.5159 25.966 20.1352ZM89.3091 39.1283C89.3864 39.5684 90.4881 36.8724 90.0349 37.5268C89.9331 37.6882 89.4536 38.7822 89.3091 39.1283ZM92.9853 26.9404C92.9865 26.5723 92.5921 28.0063 92.7532 28.0171C92.8088 28.0304 92.9893 26.9879 92.9853 26.9404ZM56.8849 26.8894C56.8756 26.8169 56.7388 25.7432 56.735 25.7089C56.7562 24.9755 57.1839 28.5167 56.8849 26.8894ZM91.8353 16.5042C91.9585 16.5781 91.9329 16.4672 91.8623 16.354C91.59 16.031 91.1676 15.7212 91.3829 16.0288C91.3956 16.0458 91.6292 16.2692 91.784 16.4388C91.81 16.4735 91.8309 16.5018 91.8353 16.5042ZM89.6117 15.0283C89.7845 15.0741 90.385 15.4469 90.4119 15.4033C90.4817 15.3146 89.7549 14.8887 89.6117 15.0283ZM42.5146 10.1471C42.6661 10.2271 40.9274 10.2721 40.333 10.4249C40.1668 10.3367 41.9182 10.1508 42.5146 10.1471ZM51.6375 13.9127C49.245 11.4151 47.9249 11.2293 48.18 11.2172C48.3822 11.3063 50.0717 11.8915 51.9487 14.1891C51.8989 14.245 51.9308 14.2384 51.6375 13.9127ZM44.0985 10.2342C44.2811 10.2 44.7313 10.2306 45.1829 10.2958C45.3754 10.3236 45.5624 10.3579 45.7225 10.39C45.6791 10.4027 45.4574 10.3685 45.179 10.3343C44.7924 10.2855 44.3256 10.2415 44.0985 10.2342ZM87.5966 42.2129C87.628 41.6661 88.7461 39.7227 88.6692 40.1094C88.6513 40.2241 87.6359 42.4194 87.5966 42.2129ZM56.6829 26.2383C56.6045 26.4363 56.2361 24.0631 56.2006 23.8786C56.1605 23.1252 56.6559 26.0349 56.6829 26.2383ZM32.5833 13.9705C32.2826 14.2673 31.294 14.9859 30.7004 15.5065C30.9288 15.2216 32.0464 14.3448 32.5833 13.9705ZM37.3598 11.384C37.318 11.3956 36.3712 11.7896 36.3279 11.8135C35.5204 12.0798 38.2071 10.9667 37.3598 11.384ZM49.7194 86.6177C49.7453 86.5901 50.4336 86.1005 50.4621 86.0895C51.2089 85.8176 49.1392 87.2889 49.7194 86.6177Z" fill="#A1F763"/>
</svg>
